<svg xmlns="http://www.w3.org/2000/svg" width="683.093" height="65" viewBox="0 0 683.093 65">
  <metadata><?xpacket begin="﻿" id="W5M0MpCehiHzreSzNTczkc9d"?>
<x:xmpmeta xmlns:x="adobe:ns:meta/" x:xmptk="Adobe XMP Core 5.6-c138 79.159824, 2016/09/14-01:09:01        ">
   <rdf:RDF xmlns:rdf="http://www.w3.org/1999/02/22-rdf-syntax-ns#">
      <rdf:Description rdf:about=""/>
   </rdf:RDF>
</x:xmpmeta>
                                                                                                    
                                                                                                    
                                                                                                    
                                                                                                    
                                                                                                    
                                                                                                    
                                                                                                    
                                                                                                    
                                                                                                    
                                                                                                    
                                                                                                    
                                                                                                    
                                                                                                    
                                                                                                    
                                                                                                    
                                                                                                    
                                                                                                    
                                                                                                    
                                                                                                    
                                                                                                    
                           
<?xpacket end="w"?></metadata>
<defs>
    <style>
      .cls-1 {
        fill: #181818;
        fill-rule: evenodd;
      }
    </style>
  </defs>
  <path id="_To_be_inspired_is_great_but_to_inspire_is_an_honor._-_Stace" data-name="“To be inspired is great, but to inspire is an honor.”  - Stace" class="cls-1" d="M169.274,241.573c-0.276,1.568.5,2.432,1.555,2.432a2.1,2.1,0,0,0,2-1.7,1.251,1.251,0,0,0-1.248-1.632c-0.16,0-.389.032-0.421,0.032a5.97,5.97,0,0,1,2.573-2.976l-1.015-.96A7.611,7.611,0,0,0,169.274,241.573Zm5.12,0c-0.277,1.568.5,2.432,1.555,2.432a2.134,2.134,0,0,0,2.027-1.7,1.27,1.27,0,0,0-1.28-1.632c-0.16,0-.39.032-0.422,0.032a6.142,6.142,0,0,1,2.573-2.976l-1.014-.96A7.611,7.611,0,0,0,174.394,241.573Zm12.768,16.863,3.348-18.975h6.784l0.418-2.368H181.521l-0.418,2.368h6.752l-3.348,18.975h2.655Zm12.893,0.384c4.7,0,8.291-3.648,9.081-8.128s-1.515-8.095-6.219-8.095a9.4,9.4,0,0,0-9.076,8.095C193.051,255.172,195.351,258.82,200.055,258.82Zm0.378-2.144c-3.3,0-4.655-2.816-4.1-5.984,0.554-3.136,2.906-5.951,6.2-5.951s4.623,2.815,4.07,5.951C206.05,253.86,203.729,256.676,200.433,256.676Zm22-2.432,1.237-7.008a7.033,7.033,0,0,1,5.048-2.495c3.135,0,4.54,2.559,3.935,5.983s-2.905,5.952-6.041,5.952A4.623,4.623,0,0,1,222.43,254.244Zm-0.739,4.192,0.406-2.3a5.3,5.3,0,0,0,4.741,2.688c4.032,0,7.422-3.072,8.308-8.1,0.87-4.928-1.414-8.127-5.445-8.127a7.817,7.817,0,0,0-5.7,2.719l1.451-8.223h-2.4l-3.765,21.343h2.4Zm22.587,0.384a9.916,9.916,0,0,0,6.562-2.368l-0.876-1.568a8.026,8.026,0,0,1-5.112,1.952c-3.327,0-4.946-2.432-4.624-5.344h12.511l0.107-.608c0.819-4.64-1.29-8.287-5.961-8.287-4.416,0-8.254,3.615-9.044,8.095C236.988,255.524,239.7,258.82,244.278,258.82Zm6.4-9.088H240.538c0.546-2.368,2.669-5.151,5.965-5.151C250.023,244.581,251.056,247.428,250.681,249.732Zm16.621-8.959a2.006,2.006,0,0,0,1.915-1.6,1.336,1.336,0,0,0-1.344-1.632,2.035,2.035,0,0,0-1.888,1.632A1.309,1.309,0,0,0,267.3,240.773Zm-1.9,17.663,2.727-15.455h-2.4L263,258.436h2.4Zm17.311,0,1.914-10.848c0.593-3.359-.815-4.991-4.047-4.991a9.3,9.3,0,0,0-5.967,2.624l0.4-2.24h-2.4l-2.727,15.455h2.4l1.993-11.3a7.294,7.294,0,0,1,5-2.4c2.08,0,3.3.863,2.823,3.583l-1.784,10.112h2.4Zm9.309,0.384c4,0,6.446-2.08,6.9-4.672,1.062-6.016-8.9-3.776-8.3-7.168,0.242-1.376,1.741-2.431,3.853-2.431a5,5,0,0,1,4.263,1.951l1.413-1.663a6.541,6.541,0,0,0-5.332-2.24c-3.68,0-6.121,2.048-6.544,4.447-1.011,5.728,8.963,3.424,8.3,7.168-0.271,1.536-1.748,2.656-4.116,2.656a5.791,5.791,0,0,1-4.7-2.208l-1.553,1.728C287.485,258.052,289.494,258.82,292.022,258.82Zm17.279,0c4.064,0,7.433-3.136,8.314-8.128,0.886-5.024-1.388-8.095-5.451-8.095a7.867,7.867,0,0,0-5.69,2.688l0.406-2.3h-2.4l-3.765,21.342h2.4l1.45-8.223A5.168,5.168,0,0,0,309.3,258.82Zm-0.229-2.144a4.654,4.654,0,0,1-4.168-2.5l1.231-6.976a6.991,6.991,0,0,1,5.042-2.463c3.1,0,4.514,2.527,3.91,5.951S312.175,256.676,309.072,256.676Zm14.966-15.9a2,2,0,0,0,1.914-1.6,1.336,1.336,0,0,0-1.344-1.632,2.035,2.035,0,0,0-1.888,1.632A1.309,1.309,0,0,0,324.038,240.773Zm-1.9,17.663,2.727-15.455h-2.4l-2.727,15.455h2.4Zm6.88,0,1.931-10.944a6.99,6.99,0,0,1,4.626-2.463,4.009,4.009,0,0,1,.943.1l0.435-2.464a8.052,8.052,0,0,0-5.649,2.815l0.441-2.5h-2.4l-2.727,15.455h2.4Zm14.747,0.384a9.916,9.916,0,0,0,6.562-2.368l-0.876-1.568a8.026,8.026,0,0,1-5.112,1.952c-3.328,0-4.946-2.432-4.624-5.344h12.511l0.107-.608c0.819-4.64-1.29-8.287-5.961-8.287-4.416,0-8.254,3.615-9.044,8.095C336.474,255.524,339.189,258.82,343.764,258.82Zm6.4-9.088H340.024c0.546-2.368,2.669-5.151,5.965-5.151C349.508,244.581,350.542,247.428,350.167,249.732Zm17.984,8.7,3.766-21.343h-2.4l-1.451,8.223a5.269,5.269,0,0,0-4.736-2.719c-4.063,0-7.444,3.2-8.313,8.127-0.887,5.024,1.419,8.1,5.451,8.1a7.926,7.926,0,0,0,5.69-2.688l-0.407,2.3h2.4Zm-6.729-1.76c-3.1,0-4.513-2.528-3.909-5.952s2.911-5.983,6.015-5.983a4.7,4.7,0,0,1,4.2,2.495l-1.236,7.008A7.019,7.019,0,0,1,361.422,256.676Zm23.446-15.9a2,2,0,0,0,1.914-1.6,1.336,1.336,0,0,0-1.343-1.632,2.035,2.035,0,0,0-1.888,1.632A1.308,1.308,0,0,0,384.868,240.773Zm-1.9,17.663,2.727-15.455h-2.4l-2.727,15.455h2.4Zm9.308,0.384c4,0,6.446-2.08,6.9-4.672,1.062-6.016-8.9-3.776-8.3-7.168,0.242-1.376,1.741-2.431,3.853-2.431a5,5,0,0,1,4.263,1.951l1.413-1.663a6.541,6.541,0,0,0-5.332-2.24c-3.68,0-6.121,2.048-6.544,4.447-1.011,5.728,8.963,3.424,8.3,7.168-0.271,1.536-1.748,2.656-4.116,2.656a5.791,5.791,0,0,1-4.7-2.208l-1.553,1.728C387.739,258.052,389.748,258.82,392.276,258.82Zm22.768,5.887c3.776,0,7.642-1.6,8.545-6.719l2.648-15.007h-2.4l-0.412,2.335a5.217,5.217,0,0,0-4.7-2.719c-4.064,0-7.422,3.071-8.3,8.031-0.881,4.992,1.436,8,5.468,8a7.887,7.887,0,0,0,5.669-2.752l-0.389,2.208c-0.6,3.391-3.219,4.639-5.779,4.639-2.207,0-3.642-.576-4.651-2.112l-1.532,1.792C410.719,264.2,412.421,264.707,415.044,264.707Zm1.8-8.191c-3.1,0-4.52-2.5-3.921-5.888,0.6-3.424,2.894-5.887,6-5.887a4.616,4.616,0,0,1,4.168,2.495l-1.192,6.752A7.019,7.019,0,0,1,416.842,256.516Zm13.549,1.92,1.931-10.944a6.99,6.99,0,0,1,4.626-2.463,4.009,4.009,0,0,1,.943.1l0.435-2.464a8.052,8.052,0,0,0-5.649,2.815l0.441-2.5h-2.4l-2.727,15.455h2.4Zm14.747,0.384a9.916,9.916,0,0,0,6.562-2.368l-0.876-1.568a8.026,8.026,0,0,1-5.112,1.952c-3.327,0-4.946-2.432-4.624-5.344H453.6l0.107-.608c0.819-4.64-1.29-8.287-5.961-8.287-4.416,0-8.254,3.615-9.044,8.095C437.848,255.524,440.563,258.82,445.138,258.82Zm6.4-9.088H441.4c0.546-2.368,2.669-5.151,5.965-5.151C450.882,244.581,451.916,247.428,451.541,249.732Zm17.984,8.7,2.727-15.455H469.82l-0.412,2.335a5.184,5.184,0,0,0-4.7-2.719c-4.063,0-7.444,3.2-8.313,8.127-0.886,5.024,1.419,8.1,5.451,8.1a7.926,7.926,0,0,0,5.69-2.688l-0.407,2.3h2.4Zm-6.729-1.76c-3.1,0-4.513-2.528-3.909-5.952s2.911-5.983,6.015-5.983a4.7,4.7,0,0,1,4.2,2.495l-1.236,7.008A7.019,7.019,0,0,1,462.8,256.676Zm15.046,2.144a4.594,4.594,0,0,0,3.055-.992l-0.388-1.792a2.747,2.747,0,0,1-1.745.64c-1.056,0-1.421-.832-1.217-1.984l1.693-9.6h3.136l0.373-2.112h-3.136l0.745-4.224h-2.4l-0.745,4.224h-2.56l-0.372,2.112h2.559L475.056,255.2C474.65,257.508,475.57,258.82,477.842,258.82Zm8.619-1.152c0.271-1.536-.531-2.432-1.587-2.432a2.133,2.133,0,0,0-2,1.728,1.251,1.251,0,0,0,1.248,1.632,1.6,1.6,0,0,0,.459-0.064,6.106,6.106,0,0,1-2.605,2.975l1.009,0.992A7.727,7.727,0,0,0,486.461,257.668Zm14.748-3.424,1.236-7.008a7.035,7.035,0,0,1,5.048-2.495c3.136,0,4.54,2.559,3.936,5.983s-2.906,5.952-6.041,5.952A4.623,4.623,0,0,1,501.209,254.244Zm-0.74,4.192,0.407-2.3a5.3,5.3,0,0,0,4.741,2.688c4.032,0,7.422-3.072,8.308-8.1,0.87-4.928-1.414-8.127-5.445-8.127a7.817,7.817,0,0,0-5.7,2.719l1.451-8.223h-2.4l-3.765,21.343h2.4Zm28.512,0,2.726-15.455h-2.4l-2,11.359a7.207,7.207,0,0,1-4.987,2.336c-2.08,0-3.315-.8-2.835-3.52l1.795-10.175h-2.4l-1.925,10.911c-0.593,3.36.827,4.928,4.058,4.928a9.135,9.135,0,0,0,5.956-2.56l-0.384,2.176h2.4Zm8.316,0.384a4.592,4.592,0,0,0,3.055-.992l-0.388-1.792a2.747,2.747,0,0,1-1.744.64c-1.056,0-1.422-.832-1.218-1.984l1.693-9.6h3.136l0.373-2.112h-3.136l0.745-4.224h-2.4l-0.745,4.224h-2.56l-0.372,2.112h2.56L534.512,255.2C534.105,257.508,535.025,258.82,537.3,258.82Zm17.024,0a4.594,4.594,0,0,0,3.055-.992l-0.388-1.792a2.747,2.747,0,0,1-1.745.64c-1.056,0-1.421-.832-1.218-1.984l1.694-9.6h3.136l0.372-2.112h-3.135l0.745-4.224h-2.4l-0.745,4.224h-2.56l-0.373,2.112h2.56L551.535,255.2C551.129,257.508,552.049,258.82,554.321,258.82Zm11.935,0c4.7,0,8.291-3.648,9.082-8.128s-1.516-8.095-6.219-8.095a9.4,9.4,0,0,0-9.076,8.095C559.253,255.172,561.553,258.82,566.256,258.82Zm0.379-2.144c-3.3,0-4.655-2.816-4.1-5.984,0.553-3.136,2.906-5.951,6.2-5.951s4.622,2.815,4.069,5.951C572.251,253.86,569.93,256.676,566.635,256.676Zm23.158-15.9a2.006,2.006,0,0,0,1.914-1.6,1.336,1.336,0,0,0-1.344-1.632,2.035,2.035,0,0,0-1.888,1.632A1.309,1.309,0,0,0,589.793,240.773Zm-1.9,17.663,2.727-15.455h-2.4l-2.727,15.455h2.4Zm17.311,0,1.914-10.848c0.593-3.359-.815-4.991-4.047-4.991a9.3,9.3,0,0,0-5.967,2.624l0.4-2.24h-2.4l-2.727,15.455h2.4l1.993-11.3a7.294,7.294,0,0,1,5-2.4c2.08,0,3.3.863,2.823,3.583L602.8,258.436h2.4Zm9.309,0.384c4,0,6.446-2.08,6.9-4.672,1.062-6.016-8.9-3.776-8.3-7.168,0.243-1.376,1.741-2.431,3.853-2.431a5,5,0,0,1,4.263,1.951l1.413-1.663a6.541,6.541,0,0,0-5.332-2.24c-3.68,0-6.121,2.048-6.544,4.447-1.011,5.728,8.963,3.424,8.3,7.168-0.271,1.536-1.748,2.656-4.116,2.656a5.791,5.791,0,0,1-4.7-2.208l-1.553,1.728C609.975,258.052,611.984,258.82,614.512,258.82Zm17.279,0c4.064,0,7.433-3.136,8.314-8.128,0.886-5.024-1.388-8.095-5.451-8.095a7.867,7.867,0,0,0-5.69,2.688l0.406-2.3h-2.4l-3.766,21.342h2.4l1.451-8.223A5.165,5.165,0,0,0,631.791,258.82Zm-0.229-2.144a4.654,4.654,0,0,1-4.168-2.5l1.231-6.976a6.991,6.991,0,0,1,5.042-2.463c3.1,0,4.514,2.527,3.91,5.951S634.665,256.676,631.562,256.676Zm14.966-15.9a2,2,0,0,0,1.914-1.6,1.336,1.336,0,0,0-1.344-1.632,2.035,2.035,0,0,0-1.888,1.632A1.309,1.309,0,0,0,646.528,240.773Zm-1.9,17.663,2.727-15.455h-2.4l-2.727,15.455h2.4Zm6.88,0,1.931-10.944a6.99,6.99,0,0,1,4.626-2.463,4.009,4.009,0,0,1,.943.1l0.435-2.464a8.052,8.052,0,0,0-5.649,2.815l0.441-2.5h-2.4l-2.727,15.455h2.4Zm14.747,0.384a9.916,9.916,0,0,0,6.562-2.368l-0.876-1.568a8.026,8.026,0,0,1-5.112,1.952c-3.327,0-4.946-2.432-4.624-5.344h12.511l0.107-.608c0.819-4.64-1.29-8.287-5.961-8.287-4.416,0-8.254,3.615-9.044,8.095C658.964,255.524,661.679,258.82,666.254,258.82Zm6.4-9.088H662.514c0.546-2.368,2.669-5.151,5.965-5.151C672,244.581,673.032,247.428,672.657,249.732Zm16.621-8.959a2.006,2.006,0,0,0,1.915-1.6,1.336,1.336,0,0,0-1.344-1.632,2.035,2.035,0,0,0-1.888,1.632A1.309,1.309,0,0,0,689.278,240.773Zm-1.9,17.663,2.727-15.455h-2.4l-2.727,15.455h2.4Zm9.308,0.384c4,0,6.446-2.08,6.9-4.672,1.061-6.016-8.9-3.776-8.3-7.168,0.243-1.376,1.741-2.431,3.853-2.431A5,5,0,0,1,703.4,246.5l1.413-1.663a6.541,6.541,0,0,0-5.332-2.24c-3.68,0-6.121,2.048-6.544,4.447-1.011,5.728,8.963,3.424,8.3,7.168-0.271,1.536-1.748,2.656-4.116,2.656a5.791,5.791,0,0,1-4.7-2.208l-1.553,1.728C692.15,258.052,694.158,258.82,696.686,258.82Zm31.267-.384,2.726-15.455h-2.431l-0.413,2.335a5.181,5.181,0,0,0-4.7-2.719c-4.064,0-7.444,3.2-8.314,8.127-0.886,5.024,1.42,8.1,5.451,8.1a7.924,7.924,0,0,0,5.69-2.688l-0.406,2.3h2.4Zm-6.729-1.76c-3.1,0-4.514-2.528-3.91-5.952s2.912-5.983,6.015-5.983a4.705,4.705,0,0,1,4.2,2.495l-1.237,7.008A7.019,7.019,0,0,1,721.224,256.676Zm24.041,1.76,1.913-10.848c0.593-3.359-.815-4.991-4.046-4.991a9.3,9.3,0,0,0-5.967,2.624l0.395-2.24h-2.4l-2.727,15.455h2.4l1.993-11.3a7.294,7.294,0,0,1,5-2.4c2.08,0,3.3.863,2.824,3.583l-1.784,10.112h2.4Zm25.279,0,1.925-10.912c0.593-3.359-.826-4.927-4.058-4.927a9.3,9.3,0,0,0-6,2.624l1.434-8.128h-2.4l-3.766,21.343h2.4l1.993-11.3a7.427,7.427,0,0,1,5-2.4c2.08,0,3.347.8,2.867,3.519l-1.8,10.176h2.4Zm11.164,0.384c4.7,0,8.292-3.648,9.082-8.128s-1.515-8.095-6.219-8.095a9.4,9.4,0,0,0-9.076,8.095C774.705,255.172,777.005,258.82,781.708,258.82Zm0.379-2.144c-3.3,0-4.655-2.816-4.1-5.984,0.553-3.136,2.906-5.951,6.2-5.951s4.622,2.815,4.069,5.951C787.7,253.86,785.382,256.676,782.087,256.676Zm23.752,1.76,1.914-10.848c0.593-3.359-.815-4.991-4.047-4.991a9.3,9.3,0,0,0-5.966,2.624l0.395-2.24h-2.4l-2.727,15.455h2.4l1.993-11.3a7.294,7.294,0,0,1,5-2.4c2.08,0,3.3.863,2.824,3.583l-1.784,10.112h2.4ZM817,258.82c4.7,0,8.291-3.648,9.081-8.128s-1.515-8.095-6.219-8.095a9.4,9.4,0,0,0-9.075,8.095C810,255.172,812.3,258.82,817,258.82Zm0.378-2.144c-3.295,0-4.655-2.816-4.1-5.984,0.554-3.136,2.906-5.951,6.2-5.951s4.623,2.815,4.07,5.951C823,253.86,820.678,256.676,817.382,256.676Zm13.322,1.76,1.931-10.944a6.99,6.99,0,0,1,4.626-2.463,4.009,4.009,0,0,1,.943.1l0.435-2.464a8.052,8.052,0,0,0-5.649,2.815l0.441-2.5h-2.4L828.3,258.436h2.4Zm6.407,0.32a2.214,2.214,0,0,0,2.071-1.76,1.448,1.448,0,0,0-1.45-1.76,2.212,2.212,0,0,0-2.07,1.76A1.446,1.446,0,0,0,837.111,258.756Zm15.13-19.551c0.276-1.568-.531-2.432-1.587-2.432a2.164,2.164,0,0,0-2,1.728,1.27,1.27,0,0,0,1.28,1.632,1.533,1.533,0,0,0,.427-0.064,6.131,6.131,0,0,1-2.573,2.976l1.009,0.992A7.8,7.8,0,0,0,852.241,239.205Zm-5.12,0c0.277-1.568-.531-2.432-1.587-2.432a2.135,2.135,0,0,0-2,1.728,1.251,1.251,0,0,0,1.248,1.632,1.609,1.609,0,0,0,.46-0.064,6.217,6.217,0,0,1-2.605,2.976l1.009,0.992A7.73,7.73,0,0,0,847.121,239.205Zm-203.874,49.6,0.372-2.112H635.94l-0.373,2.112h7.68Zm16.735,7.072c5.76,0,8.431-3.168,8.978-6.272,1.406-7.967-11.719-5.216-10.872-10.015,0.356-2.016,2.423-3.392,4.982-3.392a6.82,6.82,0,0,1,5.724,2.56l1.945-1.952c-1.459-1.888-3.8-2.976-7.059-2.976-4.191,0-7.751,2.4-8.372,5.92-1.343,7.615,11.832,4.575,10.861,10.079-0.288,1.632-1.865,3.68-5.673,3.68a7.425,7.425,0,0,1-6.183-3.04l-1.924,2.016C653.8,294.472,656.271,295.88,659.982,295.88Zm14.785,0a4.591,4.591,0,0,0,3.054-.992l-0.387-1.792a2.749,2.749,0,0,1-1.745.64c-1.056,0-1.421-.832-1.218-1.984l1.694-9.6H679.3l0.373-2.112h-3.136l0.745-4.224h-2.4l-0.746,4.224h-2.559l-0.373,2.112h2.56l-1.784,10.111C671.574,294.568,672.5,295.88,674.767,295.88Zm18.85-.384,2.727-15.455h-2.432l-0.412,2.335a5.183,5.183,0,0,0-4.7-2.719c-4.063,0-7.444,3.2-8.313,8.127-0.886,5.024,1.419,8.1,5.451,8.1a7.926,7.926,0,0,0,5.69-2.688l-0.407,2.3h2.4Zm-6.729-1.76c-3.1,0-4.513-2.528-3.909-5.952s2.911-5.983,6.015-5.983a4.7,4.7,0,0,1,4.2,2.5l-1.236,7.008A7.019,7.019,0,0,1,686.888,293.736Zm17.958,2.144a8,8,0,0,0,6.138-2.688l-1.34-1.472a5.654,5.654,0,0,1-4.292,2.016c-3.3,0-4.892-2.56-4.288-5.984s3.1-5.951,6.394-5.951a3.754,3.754,0,0,1,3.58,2.015l1.86-1.471c-0.913-1.536-2.374-2.688-5.19-2.688a9.473,9.473,0,0,0-9.14,8.1C697.756,292.36,700.238,295.88,704.846,295.88Zm15.68,0a9.913,9.913,0,0,0,6.561-2.368l-0.875-1.568A8.026,8.026,0,0,1,721.1,293.9c-3.328,0-4.947-2.432-4.625-5.344h12.511l0.107-.608c0.819-4.64-1.289-8.287-5.961-8.287-4.416,0-8.253,3.615-9.044,8.1C713.236,292.584,715.95,295.88,720.526,295.88Zm6.4-9.088H716.786c0.545-2.368,2.668-5.151,5.964-5.151C726.27,281.641,727.3,284.488,726.929,286.792Zm9.038,14.975c3.807,0,7.438-2.08,8.251-6.687l2.654-15.039h-2.4l-1.954,11.071a7.207,7.207,0,0,1-4.987,2.336c-2.08,0-3.315-.8-2.83-3.552l1.739-9.855h-2.4l-1.869,10.591c-0.593,3.36.826,4.928,4.058,4.928a9.133,9.133,0,0,0,5.955-2.56l-0.367,2.08a5.273,5.273,0,0,1-5.5,4.7,4.756,4.756,0,0,1-4.331-2.112l-1.532,1.792A6.536,6.536,0,0,0,735.967,301.767Zm28.626-6.271,3.348-18.975h6.783l0.418-2.368H758.951l-0.418,2.368h6.752L761.937,295.5h2.656Zm8.136,0.32a2.212,2.212,0,0,0,2.07-1.76,1.446,1.446,0,0,0-1.449-1.76,2.212,2.212,0,0,0-2.07,1.76A1.446,1.446,0,0,0,772.729,295.816Zm31.639-.32,3.766-21.343h-2.656l-1.621,9.183H791.378L793,274.153h-2.656L786.577,295.5h2.656l1.728-9.792H803.44l-1.728,9.792h2.656Zm17.408,0,2.727-15.455h-2.4l-2,11.359a7.207,7.207,0,0,1-4.988,2.336c-2.08,0-3.315-.8-2.835-3.52l1.8-10.175h-2.4l-1.925,10.911c-0.593,3.36.826,4.928,4.058,4.928a9.133,9.133,0,0,0,5.955-2.56l-0.384,2.176h2.4Zm17.312,0L841,284.648c0.593-3.359-.815-4.991-4.047-4.991a9.3,9.3,0,0,0-5.967,2.624l0.395-2.24h-2.4L826.257,295.5h2.4l1.993-11.3a7.294,7.294,0,0,1,5-2.4c2.079,0,3.3.863,2.823,3.583L836.688,295.5h2.4Zm8.317,0.384a4.591,4.591,0,0,0,3.054-.992l-0.387-1.792a2.749,2.749,0,0,1-1.745.64c-1.056,0-1.421-.832-1.218-1.984l1.694-9.6h3.135l0.373-2.112h-3.136l0.746-4.224h-2.4l-0.746,4.224h-2.559l-0.373,2.112h2.56l-1.784,10.111C844.212,294.568,845.133,295.88,847.405,295.88Z" transform="translate(-169.219 -236.781)"/>
</svg>
