<svg xmlns="http://www.w3.org/2000/svg" width="779.25" height="152.094" viewBox="0 0 779.25 152.094">
  <metadata><?xpacket begin="﻿" id="W5M0MpCehiHzreSzNTczkc9d"?>
<x:xmpmeta xmlns:x="adobe:ns:meta/" x:xmptk="Adobe XMP Core 5.6-c138 79.159824, 2016/09/14-01:09:01        ">
   <rdf:RDF xmlns:rdf="http://www.w3.org/1999/02/22-rdf-syntax-ns#">
      <rdf:Description rdf:about=""/>
   </rdf:RDF>
</x:xmpmeta>
                                                                                                    
                                                                                                    
                                                                                                    
                                                                                                    
                                                                                                    
                                                                                                    
                                                                                                    
                                                                                                    
                                                                                                    
                                                                                                    
                                                                                                    
                                                                                                    
                                                                                                    
                                                                                                    
                                                                                                    
                                                                                                    
                                                                                                    
                                                                                                    
                                                                                                    
                                                                                                    
                           
<?xpacket end="w"?></metadata>
<defs>
    <style>
      .cls-1 {
        fill: #181818;
        fill-rule: evenodd;
      }
    </style>
  </defs>
  <path id="Share_your_story_of_inspiration_Inspired_by_Jeff_Bauman_and_in" data-name="Share your story of inspiration  Inspired by Jeff Bauman and in" class="cls-1" d="M332.966,58.247a11.845,11.845,0,0,0,8.721,3.267c5.547,0,8.228-2.835,8.228-6.595,0-4.561-4.314-5.578-7.7-6.348-2.373-.555-4.1-0.986-4.1-2.373,0-1.233,1.048-2.1,3.02-2.1a8.769,8.769,0,0,1,5.886,2.25l2.435-3.2a11.434,11.434,0,0,0-8.012-2.866c-4.838,0-7.8,2.773-7.8,6.194,0,4.592,4.314,5.516,7.673,6.286,2.373,0.555,4.16,1.079,4.16,2.619,0,1.171-1.171,2.311-3.574,2.311a9.011,9.011,0,0,1-6.533-2.773Zm33.682,2.9h4.406V40.59h-4.406v8.074h-9.707V40.59h-4.376V61.144h4.376V52.515h9.707v8.628Zm22.526,0h4.776L386.03,40.59h-5.485L372.6,61.144H377.4L378.7,57.6h9.183ZM383.288,44.38l3.39,9.43h-6.811ZM407.17,61.144h5.023l-4.623-7.827a5.9,5.9,0,0,0,4.5-6.1c0-3.821-2.619-6.625-6.9-6.625h-9.615V61.144h4.376V53.779h3.2Zm0.431-13.96a2.837,2.837,0,0,1-3.081,2.835h-4.592v-5.67h4.592A2.837,2.837,0,0,1,407.6,47.184Zm7.457,13.96H429.6v-3.79H419.434V52.577h9.954V48.818h-9.954V44.349H429.6V40.59H415.058V61.144Zm30.97,0H450.4V52.731l7.858-12.141H453.27l-5.054,8.259L443.1,40.59h-4.992l7.92,12.141v8.413Zm11.618-10.262a10.74,10.74,0,0,0,21.478,0A10.74,10.74,0,0,0,457.646,50.882Zm16.979,0c0,3.821-2.465,6.749-6.256,6.749s-6.224-2.927-6.224-6.749c0-3.852,2.434-6.749,6.224-6.749S474.625,47.03,474.625,50.882Zm7.273,2.065c0,5.054,2.927,8.567,9.213,8.567,6.225,0,9.153-3.482,9.153-8.6V40.59h-4.438v12.2c0,2.866-1.571,4.838-4.715,4.838-3.2,0-4.776-1.972-4.776-4.838V40.59H481.9V52.947Zm33.743,8.2h5.023l-4.623-7.827a5.9,5.9,0,0,0,4.5-6.1c0-3.821-2.619-6.625-6.9-6.625h-9.615V61.144H508.4V53.779h3.2Zm0.431-13.96a2.837,2.837,0,0,1-3.081,2.835H508.4v-5.67h4.592A2.837,2.837,0,0,1,516.072,47.184Zm13.62,11.063a11.845,11.845,0,0,0,8.721,3.267c5.547,0,8.228-2.835,8.228-6.595,0-4.561-4.314-5.578-7.7-6.348-2.373-.555-4.1-0.986-4.1-2.373,0-1.233,1.047-2.1,3.02-2.1a8.766,8.766,0,0,1,5.885,2.25l2.435-3.2a11.434,11.434,0,0,0-8.012-2.866c-4.838,0-7.8,2.773-7.8,6.194,0,4.592,4.315,5.516,7.674,6.286,2.372,0.555,4.16,1.079,4.16,2.619,0,1.171-1.171,2.311-3.575,2.311a9.011,9.011,0,0,1-6.533-2.773Zm24.129,2.9h4.407v-16.7h5.978V40.59H547.812v3.852h6.009v16.7Zm11.156-10.262a10.74,10.74,0,0,0,21.478,0A10.74,10.74,0,0,0,564.977,50.882Zm16.979,0c0,3.821-2.465,6.749-6.255,6.749s-6.225-2.927-6.225-6.749c0-3.852,2.434-6.749,6.225-6.749S581.956,47.03,581.956,50.882Zm18.89,10.262h5.023l-4.622-7.827a5.9,5.9,0,0,0,4.5-6.1c0-3.821-2.619-6.625-6.9-6.625h-9.614V61.144h4.376V53.779h3.2Zm0.432-13.96a2.837,2.837,0,0,1-3.082,2.835h-4.591v-5.67H598.2A2.837,2.837,0,0,1,601.278,47.184Zm12.634,13.96h4.376V52.731l7.858-12.141h-4.992L616.1,48.848l-5.115-8.259h-4.992l7.919,12.141v8.413Zm20.431-10.262a10.74,10.74,0,0,0,21.478,0A10.74,10.74,0,0,0,634.343,50.882Zm16.979,0c0,3.821-2.465,6.749-6.255,6.749s-6.225-2.927-6.225-6.749c0-3.852,2.434-6.749,6.225-6.749S651.322,47.03,651.322,50.882ZM658.6,61.144h4.376V52.577h9.953V48.818h-9.953V44.349H673.14V40.59H658.6V61.144Zm24.868,0h4.376V40.59h-4.376V61.144Zm22.31,0H710V40.59h-4.376V53.9L696.1,40.59h-4.5V61.144h4.376V47.338Zm6.564-2.9a11.842,11.842,0,0,0,8.721,3.267c5.546,0,8.227-2.835,8.227-6.595,0-4.561-4.314-5.578-7.7-6.348-2.372-.555-4.1-0.986-4.1-2.373,0-1.233,1.048-2.1,3.02-2.1a8.769,8.769,0,0,1,5.886,2.25l2.434-3.2a11.432,11.432,0,0,0-8.012-2.866c-4.838,0-7.8,2.773-7.8,6.194,0,4.592,4.314,5.516,7.673,6.286,2.373,0.555,4.16,1.079,4.16,2.619,0,1.171-1.171,2.311-3.575,2.311a9.013,9.013,0,0,1-6.533-2.773Zm19.6,2.9h4.376V53.779h5.239c4.437,0,6.9-2.989,6.9-6.564,0-3.605-2.435-6.625-6.9-6.625h-9.615V61.144Zm12.049-13.96a2.8,2.8,0,0,1-3.02,2.835h-4.653v-5.67h4.653A2.819,2.819,0,0,1,743.984,47.184Zm6.872,13.96h4.376V40.59h-4.376V61.144Zm19.753,0h5.022l-4.622-7.827a5.9,5.9,0,0,0,4.5-6.1c0-3.821-2.619-6.625-6.9-6.625h-9.615V61.144h4.376V53.779h3.205Zm0.431-13.96a2.837,2.837,0,0,1-3.082,2.835h-4.591v-5.67h4.591A2.837,2.837,0,0,1,771.04,47.184Zm21.848,13.96h4.776L789.745,40.59H784.26l-7.951,20.554h4.808l1.294-3.544h9.183ZM787,44.38l3.39,9.43h-6.81ZM802.04,61.144h4.407v-16.7h5.978V40.59H796.031v3.852h6.009v16.7Zm12.881,0H819.3V40.59h-4.376V61.144Zm7.149-10.262a10.74,10.74,0,0,0,21.478,0A10.74,10.74,0,0,0,822.07,50.882Zm16.979,0c0,3.821-2.465,6.749-6.255,6.749s-6.225-2.927-6.225-6.749c0-3.852,2.434-6.749,6.225-6.749S839.049,47.03,839.049,50.882ZM860.5,61.144h4.222V40.59h-4.376V53.9L850.821,40.59h-4.5V61.144H850.7V47.338ZM123.072,94.761V77.315H120.9V94.761h2.171Zm14.227,0V85.894c0-2.746-1.387-4.08-4.028-4.08a6.265,6.265,0,0,0-4.5,2.145V82.128H126.81V94.761h1.962V85.528a4.877,4.877,0,0,1,3.74-1.962c1.7,0,2.825.706,2.825,2.929v8.265H137.3Zm7.658,0.314c3.27,0,4.97-1.7,4.97-3.819,0-4.917-7.821-3.086-7.821-5.859,0-1.125,1.073-1.988,2.8-1.988a4.919,4.919,0,0,1,3.766,1.6l0.916-1.36a6.393,6.393,0,0,0-4.682-1.831c-3.008,0-4.708,1.674-4.708,3.636,0,4.682,7.82,2.8,7.82,5.859,0,1.255-1.046,2.171-2.981,2.171a5.725,5.725,0,0,1-4.159-1.8l-1.02,1.412A6.72,6.72,0,0,0,144.957,95.075Zm14.12,0c3.322,0,5.624-2.563,5.624-6.644,0-4.106-2.3-6.617-5.624-6.617a5.28,5.28,0,0,0-4.263,2.2V82.128h-1.962V99.574h1.962V92.852A5.176,5.176,0,0,0,159.077,95.075Zm-0.5-1.752a4.692,4.692,0,0,1-3.766-2.04v-5.7a4.67,4.67,0,0,1,3.766-2.014c2.537,0,4.054,2.066,4.054,4.865S161.117,93.323,158.58,93.323Zm9.934-13a1.317,1.317,0,0,0,1.334-1.308,1.321,1.321,0,1,0-2.642,0A1.312,1.312,0,0,0,168.514,80.323Zm0.994,14.438V82.128h-1.962V94.761h1.962Zm5.621,0V85.816a4.624,4.624,0,0,1,3.427-2.014,3.449,3.449,0,0,1,.784.078V81.866a5.37,5.37,0,0,0-4.211,2.3v-2.04h-1.961V94.761h1.961Zm12.107,0.314a6.861,6.861,0,0,0,5.022-1.936l-0.941-1.282a5.524,5.524,0,0,1-3.9,1.6,4.452,4.452,0,0,1-4.551-4.368H193.1v-0.5c0-3.793-2.249-6.774-6.068-6.774A6.638,6.638,0,0,0,187.236,95.075Zm3.924-7.428h-8.292A4.215,4.215,0,0,1,187,83.436,4.1,4.1,0,0,1,191.16,87.647Zm15.949,7.114V77.315h-1.961v6.722a5.283,5.283,0,0,0-4.264-2.223c-3.321,0-5.623,2.615-5.623,6.643,0,4.106,2.328,6.617,5.623,6.617a5.32,5.32,0,0,0,4.264-2.2v1.883h1.961Zm-5.754-1.438c-2.537,0-4.054-2.066-4.054-4.865s1.517-4.891,4.054-4.891a4.745,4.745,0,0,1,3.793,2.04v5.728A4.7,4.7,0,0,1,201.355,93.323Zm17.857-1.988V85.607a4.692,4.692,0,0,1,3.766-2.04c2.564,0,4.081,2.092,4.081,4.891s-1.517,4.865-4.081,4.865A4.648,4.648,0,0,1,219.212,91.335Zm0,3.426V92.878a5.319,5.319,0,0,0,4.263,2.2c3.3,0,5.624-2.511,5.624-6.617,0-4.028-2.328-6.643-5.624-6.643a5.245,5.245,0,0,0-4.263,2.223V77.315H217.25V94.761h1.962Zm17.519,5.127c3.113,0,5.781-1.7,5.781-5.466V82.128H240.55v9.05a4.832,4.832,0,0,1-3.74,1.909c-1.7,0-2.825-.654-2.825-2.9V82.128h-1.962v8.657c0,2.746,1.386,4.028,4.028,4.028a6.181,6.181,0,0,0,4.5-2.092v1.7a3.5,3.5,0,0,1-3.819,3.845,4.692,4.692,0,0,1-3.845-1.726L231.892,98A6.365,6.365,0,0,0,236.731,99.888Zm18.8-4.813c3.112,0,5.545-1.779,5.545-5.571V77.315H258.9V89.478a3.379,3.379,0,0,1-3.5,3.662,4.178,4.178,0,0,1-3.3-1.726l-1.124,1.648A5.6,5.6,0,0,0,255.53,95.075Zm14.983,0a6.864,6.864,0,0,0,5.022-1.936l-0.942-1.282a5.523,5.523,0,0,1-3.9,1.6,4.452,4.452,0,0,1-4.551-4.368h10.226v-0.5c0-3.793-2.249-6.774-6.068-6.774A6.638,6.638,0,0,0,270.513,95.075Zm3.923-7.428h-8.291a4.214,4.214,0,0,1,4.132-4.211A4.1,4.1,0,0,1,274.436,87.647Zm7.345,7.114V83.854h2.563V82.128h-2.563V81.16c0-1.6.706-2.485,1.987-2.485a2.308,2.308,0,0,1,1.57.628l0.811-1.282a3.676,3.676,0,0,0-2.668-.968c-2.25,0-3.662,1.517-3.662,4.106v0.968h-2.093v1.726h2.093V94.761h1.962Zm7.4,0V83.854h2.563V82.128h-2.563V81.16c0-1.6.706-2.485,1.987-2.485a2.308,2.308,0,0,1,1.57.628l0.811-1.282a3.676,3.676,0,0,0-2.668-.968c-2.25,0-3.662,1.517-3.662,4.106v0.968h-2.093v1.726h2.093V94.761h1.962Zm19.164,0c3.191,0,5.048-1.909,5.048-4.708a4.356,4.356,0,0,0-3.4-4.29,3.966,3.966,0,0,0,3.06-4c0-2.616-1.857-4.446-4.891-4.446H300.4V94.761h7.951ZM307.8,84.874h-5.231V79.251H307.8a2.743,2.743,0,0,1,3.008,2.825A2.711,2.711,0,0,1,307.8,84.874Zm0.1,7.951h-5.335V86.81H307.9a2.963,2.963,0,0,1,3.244,3.008C311.146,91.675,309.943,92.826,307.9,92.826Zm19.716,1.935V82.128H325.63v1.909a5.2,5.2,0,0,0-4.237-2.223c-3.322,0-5.623,2.615-5.623,6.643,0,4.106,2.328,6.617,5.623,6.617a5.32,5.32,0,0,0,4.264-2.2v1.883h1.961Zm-5.754-1.438c-2.537,0-4.054-2.066-4.054-4.865s1.517-4.891,4.054-4.891a4.745,4.745,0,0,1,3.793,2.04v5.728A4.7,4.7,0,0,1,321.864,93.323Zm19.9,1.438V82.128H339.8v9.285a4.834,4.834,0,0,1-3.741,1.909c-1.7,0-2.824-.654-2.824-2.877V82.128h-1.962v8.919c0,2.746,1.386,4.028,4.028,4.028a6.181,6.181,0,0,0,4.5-2.093v1.779h1.961Zm20.868,0V85.633c0-2.537-1.23-3.819-3.531-3.819a5.32,5.32,0,0,0-4.238,2.354,3.242,3.242,0,0,0-3.4-2.354,5.46,5.46,0,0,0-4.08,2.145V82.128H345.42V94.761h1.962V85.528a4.411,4.411,0,0,1,3.322-1.962c1.647,0,2.327,1.02,2.327,2.615v8.579h1.962V85.5a4.419,4.419,0,0,1,3.348-1.935c1.622,0,2.328,1.02,2.328,2.615v8.579h1.962Zm14.77,0V82.128h-1.987v1.909a5.2,5.2,0,0,0-4.238-2.223c-3.321,0-5.623,2.615-5.623,6.643,0,4.106,2.328,6.617,5.623,6.617a5.32,5.32,0,0,0,4.264-2.2v1.883H377.4Zm-5.754-1.438c-2.537,0-4.054-2.066-4.054-4.865s1.517-4.891,4.054-4.891a4.742,4.742,0,0,1,3.793,2.04v5.728A4.7,4.7,0,0,1,371.647,93.323Zm19.9,1.438V85.894c0-2.746-1.387-4.08-4.028-4.08a6.265,6.265,0,0,0-4.5,2.145V82.128h-1.962V94.761h1.962V85.528a4.877,4.877,0,0,1,3.74-1.962c1.7,0,2.825.706,2.825,2.929v8.265h1.962Zm21.257,0V82.128h-1.988v1.909a5.2,5.2,0,0,0-4.237-2.223c-3.322,0-5.624,2.615-5.624,6.643,0,4.106,2.328,6.617,5.624,6.617a5.318,5.318,0,0,0,4.263-2.2v1.883H412.8Zm-5.754-1.438c-2.537,0-4.054-2.066-4.054-4.865s1.517-4.891,4.054-4.891a4.742,4.742,0,0,1,3.792,2.04v5.728A4.7,4.7,0,0,1,407.05,93.323Zm19.9,1.438V85.894c0-2.746-1.386-4.08-4.028-4.08a6.269,6.269,0,0,0-4.5,2.145V82.128h-1.961V94.761h1.961V85.528a4.878,4.878,0,0,1,3.74-1.962c1.7,0,2.825.706,2.825,2.929v8.265h1.962Zm14.773,0V77.315H439.76v6.722a5.281,5.281,0,0,0-4.263-2.223c-3.322,0-5.623,2.615-5.623,6.643,0,4.106,2.327,6.617,5.623,6.617a5.317,5.317,0,0,0,4.263-2.2v1.883h1.962Zm-5.754-1.438c-2.537,0-4.054-2.066-4.054-4.865s1.517-4.891,4.054-4.891a4.742,4.742,0,0,1,3.792,2.04v5.728A4.7,4.7,0,0,1,435.968,93.323Zm16.863-13a1.318,1.318,0,0,0,1.334-1.308,1.321,1.321,0,1,0-2.642,0A1.312,1.312,0,0,0,452.831,80.323Zm0.994,14.438V82.128h-1.962V94.761h1.962Zm14.148,0V85.894c0-2.746-1.387-4.08-4.028-4.08a6.267,6.267,0,0,0-4.5,2.145V82.128h-1.962V94.761h1.962V85.528a4.877,4.877,0,0,1,3.74-1.962c1.7,0,2.825.706,2.825,2.929v8.265h1.962Zm15.712,0.314a5.4,5.4,0,0,0,4.629-2.2l-1.307-1.2a3.81,3.81,0,0,1-3.217,1.648c-2.694,0-4.368-2.093-4.368-4.891s1.674-4.865,4.368-4.865a3.747,3.747,0,0,1,3.217,1.648l1.307-1.2a5.4,5.4,0,0,0-4.629-2.2c-3.766,0-6.3,2.877-6.3,6.617C477.381,92.2,479.919,95.075,483.685,95.075Zm12.812,0a6.864,6.864,0,0,0,5.022-1.936l-0.942-1.282a5.523,5.523,0,0,1-3.9,1.6,4.452,4.452,0,0,1-4.551-4.368h10.227v-0.5c0-3.793-2.25-6.774-6.068-6.774A6.638,6.638,0,0,0,496.5,95.075Zm3.923-7.428h-8.291a4.214,4.214,0,0,1,4.132-4.211A4.094,4.094,0,0,1,500.42,87.647Zm7.632,7.428a3.138,3.138,0,0,0,2.328-.811L509.805,92.8a1.828,1.828,0,0,1-1.308.523,1.362,1.362,0,0,1-1.282-1.622V77.315h-1.961v14.8C505.254,94,506.2,95.075,508.052,95.075Zm9.649,0a6.861,6.861,0,0,0,5.022-1.936l-0.941-1.282a5.524,5.524,0,0,1-3.9,1.6,4.452,4.452,0,0,1-4.551-4.368H523.56v-0.5c0-3.793-2.249-6.774-6.068-6.774A6.638,6.638,0,0,0,517.7,95.075Zm3.924-7.428h-8.292a4.215,4.215,0,0,1,4.133-4.211A4.1,4.1,0,0,1,521.625,87.647Zm6.795,3.688V85.607a4.692,4.692,0,0,1,3.766-2.04c2.564,0,4.081,2.092,4.081,4.891s-1.517,4.865-4.081,4.865A4.648,4.648,0,0,1,528.42,91.335Zm0,3.426V92.878a5.318,5.318,0,0,0,4.263,2.2c3.3,0,5.624-2.511,5.624-6.617,0-4.028-2.328-6.643-5.624-6.643a5.245,5.245,0,0,0-4.263,2.223V77.315h-1.962V94.761h1.962Zm14.773,0V85.816a4.62,4.62,0,0,1,3.426-2.014,3.464,3.464,0,0,1,.785.078V81.866a5.368,5.368,0,0,0-4.211,2.3v-2.04h-1.962V94.761h1.962Zm17.521,0V82.128h-1.988v1.909a5.2,5.2,0,0,0-4.237-2.223c-3.322,0-5.624,2.615-5.624,6.643,0,4.106,2.328,6.617,5.624,6.617a5.318,5.318,0,0,0,4.263-2.2v1.883h1.962Zm-5.754-1.438c-2.538,0-4.055-2.066-4.055-4.865s1.517-4.891,4.055-4.891a4.742,4.742,0,0,1,3.792,2.04v5.728A4.7,4.7,0,0,1,554.96,93.323Zm12.6,1.752a3.2,3.2,0,0,0,2.353-.811L569.34,92.8a1.892,1.892,0,0,1-1.334.523,1.361,1.361,0,0,1-1.281-1.622V83.854h2.563V82.128h-2.563V78.675h-1.962v3.453H562.67v1.726h2.093v8.265C564.763,94,565.7,95.075,567.562,95.075Zm5.2-14.752a1.318,1.318,0,0,0,1.334-1.308,1.321,1.321,0,1,0-2.642,0A1.312,1.312,0,0,0,572.764,80.323Zm0.994,14.438V82.128H571.8V94.761h1.962Zm9.178,0.314c3.845,0,6.251-2.982,6.251-6.644s-2.406-6.617-6.251-6.617-6.251,2.956-6.251,6.617S579.091,95.075,582.936,95.075Zm0-1.752c-2.694,0-4.211-2.3-4.211-4.891,0-2.563,1.517-4.865,4.211-4.865s4.185,2.3,4.185,4.865C587.121,91.021,585.63,93.323,582.936,93.323ZM602.6,94.761V85.894c0-2.746-1.386-4.08-4.028-4.08a6.267,6.267,0,0,0-4.5,2.145V82.128h-1.961V94.761h1.961V85.528a4.878,4.878,0,0,1,3.74-1.962c1.7,0,2.825.706,2.825,2.929v8.265H602.6Zm15.66,0.314c3.845,0,6.251-2.982,6.251-6.644s-2.406-6.617-6.251-6.617-6.251,2.956-6.251,6.617S614.415,95.075,618.26,95.075Zm0-1.752c-2.694,0-4.211-2.3-4.211-4.891,0-2.563,1.517-4.865,4.211-4.865s4.185,2.3,4.185,4.865C622.445,91.021,620.954,93.323,618.26,93.323Zm11.686,1.438V83.854h2.563V82.128h-2.563V81.16c0-1.6.706-2.485,1.988-2.485a2.3,2.3,0,0,1,1.569.628l0.811-1.282a3.675,3.675,0,0,0-2.668-.968c-2.249,0-3.661,1.517-3.661,4.106v0.968h-2.093v1.726h2.093V94.761h1.961Zm21.626,0V85.842c0-2.746-1.386-4.028-4.028-4.028a6.278,6.278,0,0,0-4.525,2.145V77.315h-1.962V94.761h1.962V85.528a4.966,4.966,0,0,1,3.74-1.962c1.7,0,2.851.654,2.851,2.877v8.317h1.962Zm14.145,0V82.128h-1.962v9.285a4.832,4.832,0,0,1-3.74,1.909c-1.7,0-2.825-.654-2.825-2.877V82.128h-1.961v8.919c0,2.746,1.386,4.028,4.028,4.028a6.178,6.178,0,0,0,4.5-2.093v1.779h1.962Zm20.867,0V85.633c0-2.537-1.229-3.819-3.531-3.819a5.316,5.316,0,0,0-4.237,2.354,3.243,3.243,0,0,0-3.4-2.354,5.464,5.464,0,0,0-4.081,2.145V82.128h-1.961V94.761h1.961V85.528a4.414,4.414,0,0,1,3.322-1.962c1.648,0,2.328,1.02,2.328,2.615v8.579h1.962V85.5a4.419,4.419,0,0,1,3.348-1.935c1.621,0,2.327,1.02,2.327,2.615v8.579h1.962Zm14.771,0V82.128h-1.988v1.909a5.2,5.2,0,0,0-4.237-2.223c-3.322,0-5.623,2.615-5.623,6.643,0,4.106,2.327,6.617,5.623,6.617a5.317,5.317,0,0,0,4.263-2.2v1.883h1.962ZM695.6,93.323c-2.537,0-4.054-2.066-4.054-4.865s1.517-4.891,4.054-4.891a4.742,4.742,0,0,1,3.792,2.04v5.728A4.7,4.7,0,0,1,695.6,93.323Zm19.9,1.438V85.894c0-2.746-1.386-4.08-4.028-4.08a6.269,6.269,0,0,0-4.5,2.145V82.128h-1.961V94.761h1.961V85.528a4.879,4.879,0,0,1,3.741-1.962c1.7,0,2.824.706,2.824,2.929v8.265H715.5Zm14.143,0.314c3.27,0,4.97-1.7,4.97-3.819,0-4.917-7.821-3.086-7.821-5.859,0-1.125,1.073-1.988,2.8-1.988a4.921,4.921,0,0,1,3.766,1.6l0.916-1.36a6.393,6.393,0,0,0-4.682-1.831c-3.008,0-4.708,1.674-4.708,3.636,0,4.682,7.82,2.8,7.82,5.859,0,1.255-1.046,2.171-2.981,2.171a5.723,5.723,0,0,1-4.159-1.8l-1.02,1.412A6.719,6.719,0,0,0,729.643,95.075Zm11.086,0a3.206,3.206,0,0,0,2.354-.811L742.508,92.8a1.894,1.894,0,0,1-1.334.523,1.362,1.362,0,0,1-1.282-1.622V83.854h2.563V82.128h-2.563V78.675H737.93v3.453h-2.092v1.726h2.092v8.265C737.93,94,738.872,95.075,740.729,95.075Zm6.2-.314V85.816a4.62,4.62,0,0,1,3.426-2.014,3.458,3.458,0,0,1,.785.078V81.866a5.37,5.37,0,0,0-4.211,2.3v-2.04h-1.962V94.761h1.962Zm12.107,0.314a6.864,6.864,0,0,0,5.022-1.936l-0.942-1.282a5.521,5.521,0,0,1-3.9,1.6,4.452,4.452,0,0,1-4.551-4.368h10.227v-0.5c0-3.793-2.25-6.774-6.068-6.774A6.638,6.638,0,0,0,759.032,95.075Zm3.923-7.428h-8.291a4.215,4.215,0,0,1,4.133-4.211A4.094,4.094,0,0,1,762.955,87.647Zm15.322,7.114V85.894c0-2.746-1.386-4.08-4.028-4.08a6.265,6.265,0,0,0-4.5,2.145V82.128h-1.962V94.761h1.962V85.528a4.877,4.877,0,0,1,3.74-1.962c1.7,0,2.825.706,2.825,2.929v8.265h1.961Zm8.731,5.127c3.087,0,6.016-1.308,6.016-5.493V82.128h-1.962v1.909a5.233,5.233,0,0,0-4.237-2.223c-3.322,0-5.623,2.511-5.623,6.565,0,4.08,2.328,6.539,5.623,6.539a5.276,5.276,0,0,0,4.237-2.249v1.8c0,2.773-1.961,3.793-4.054,3.793A4.824,4.824,0,0,1,782.9,96.54L781.908,98A6.456,6.456,0,0,0,787.008,99.888Zm0.288-6.7c-2.537,0-4.054-2.04-4.054-4.813,0-2.8,1.517-4.813,4.054-4.813a4.654,4.654,0,0,1,3.766,2.04v5.519A4.676,4.676,0,0,1,787.3,93.192Zm12.576,1.883a3.208,3.208,0,0,0,2.354-.811L801.65,92.8a1.891,1.891,0,0,1-1.334.523,1.361,1.361,0,0,1-1.281-1.622V83.854H801.6V82.128h-2.563V78.675h-1.962v3.453h-2.092v1.726h2.092v8.265C797.073,94,798.015,95.075,799.872,95.075Zm14.749-.314V85.842c0-2.746-1.387-4.028-4.028-4.028a6.276,6.276,0,0,0-4.525,2.145V77.315h-1.962V94.761h1.962V85.528a4.964,4.964,0,0,1,3.74-1.962c1.7,0,2.851.654,2.851,2.877v8.317h1.962Zm21.257,0V82.128H833.89v1.909a5.2,5.2,0,0,0-4.237-2.223c-3.322,0-5.624,2.615-5.624,6.643,0,4.106,2.328,6.617,5.624,6.617a5.319,5.319,0,0,0,4.263-2.2v1.883h1.962Zm-5.755-1.438c-2.537,0-4.054-2.066-4.054-4.865s1.517-4.891,4.054-4.891a4.742,4.742,0,0,1,3.793,2.04v5.728A4.7,4.7,0,0,1,830.123,93.323Zm19.9,1.438V85.894c0-2.746-1.386-4.08-4.028-4.08a6.267,6.267,0,0,0-4.5,2.145V82.128h-1.962V94.761H841.5V85.528a4.877,4.877,0,0,1,3.74-1.962c1.7,0,2.825.706,2.825,2.929v8.265h1.962Zm14.773,0V77.315h-1.962v6.722a5.281,5.281,0,0,0-4.263-2.223c-3.322,0-5.624,2.615-5.624,6.643,0,4.106,2.328,6.617,5.624,6.617a5.318,5.318,0,0,0,4.263-2.2v1.883H864.8Zm-5.754-1.438c-2.538,0-4.055-2.066-4.055-4.865s1.517-4.891,4.055-4.891a4.742,4.742,0,0,1,3.792,2.04v5.728A4.7,4.7,0,0,1,859.042,93.323ZM101.9,125.577v-8.945a4.62,4.62,0,0,1,3.426-2.014,3.484,3.484,0,0,1,.785.078v-2.014a5.368,5.368,0,0,0-4.211,2.3v-2.04H99.934v12.633H101.9ZM114,125.891a6.859,6.859,0,0,0,5.022-1.936l-0.941-1.281a5.523,5.523,0,0,1-3.9,1.595,4.452,4.452,0,0,1-4.551-4.368h10.227v-0.5c0-3.792-2.249-6.774-6.068-6.774A6.639,6.639,0,0,0,114,125.891Zm3.924-7.428h-8.292a4.215,4.215,0,0,1,4.133-4.211A4.1,4.1,0,0,1,117.926,118.463Zm8.835,7.428c3.27,0,4.97-1.7,4.97-3.819,0-4.917-7.821-3.086-7.821-5.859,0-1.124,1.073-1.988,2.8-1.988a4.919,4.919,0,0,1,3.766,1.6l0.916-1.36a6.393,6.393,0,0,0-4.682-1.831c-3.008,0-4.708,1.674-4.708,3.636,0,4.681,7.82,2.8,7.82,5.858,0,1.256-1.046,2.171-2.981,2.171a5.726,5.726,0,0,1-4.159-1.8l-1.02,1.412A6.719,6.719,0,0,0,126.761,125.891Zm8.863-14.752a1.317,1.317,0,0,0,1.334-1.308,1.321,1.321,0,1,0-2.642,0A1.312,1.312,0,0,0,135.624,111.139Zm0.994,14.438V112.944h-1.962v12.633h1.962Zm6.458,0.314a3.137,3.137,0,0,0,2.328-.811l-0.576-1.465a1.823,1.823,0,0,1-1.307.523,1.361,1.361,0,0,1-1.282-1.621V108.131h-1.962v14.8C140.277,124.818,141.219,125.891,143.076,125.891Zm4.915-14.752a1.317,1.317,0,0,0,1.334-1.308,1.321,1.321,0,1,0-2.642,0A1.311,1.311,0,0,0,147.991,111.139Zm0.994,14.438V112.944h-1.962v12.633h1.962Zm9.361,0.314a6.861,6.861,0,0,0,5.022-1.936l-0.942-1.281a5.519,5.519,0,0,1-3.9,1.595,4.452,4.452,0,0,1-4.551-4.368h10.227v-0.5c0-3.792-2.249-6.774-6.068-6.774A6.639,6.639,0,0,0,158.346,125.891Zm3.923-7.428h-8.291a4.215,4.215,0,0,1,4.133-4.211A4.094,4.094,0,0,1,162.269,118.463Zm15.323,7.114V116.71c0-2.746-1.387-4.08-4.028-4.08a6.262,6.262,0,0,0-4.5,2.145v-1.831H167.1v12.633h1.962v-9.233a4.877,4.877,0,0,1,3.74-1.962c1.7,0,2.825.707,2.825,2.93v8.265h1.962Zm9.228,0.314a5.409,5.409,0,0,0,4.629-2.2l-1.308-1.2a3.81,3.81,0,0,1-3.217,1.647c-2.694,0-4.368-2.092-4.368-4.891s1.674-4.865,4.368-4.865a3.745,3.745,0,0,1,3.217,1.648l1.308-1.2a5.409,5.409,0,0,0-4.629-2.2c-3.767,0-6.3,2.877-6.3,6.617C180.516,123.014,183.053,125.891,186.82,125.891Zm12.811,0a6.859,6.859,0,0,0,5.022-1.936l-0.941-1.281a5.523,5.523,0,0,1-3.9,1.595,4.452,4.452,0,0,1-4.551-4.368H205.49v-0.5c0-3.792-2.249-6.774-6.068-6.774A6.639,6.639,0,0,0,199.631,125.891Zm3.924-7.428h-8.292a4.215,4.215,0,0,1,4.133-4.211A4.1,4.1,0,0,1,203.555,118.463Zm7.292,6.486a1.776,1.776,0,0,0-1.648-1.988,1.4,1.4,0,0,0-1.386,1.413,1.245,1.245,0,0,0,1.256,1.334,1.184,1.184,0,0,0,.366-0.053,3.906,3.906,0,0,1-1.7,2.433L208.7,128.9A5.049,5.049,0,0,0,210.847,124.949Zm15.166,0.942a5.409,5.409,0,0,0,4.63-2.2l-1.308-1.2a3.81,3.81,0,0,1-3.217,1.647c-2.694,0-4.368-2.092-4.368-4.891s1.674-4.865,4.368-4.865a3.745,3.745,0,0,1,3.217,1.648l1.308-1.2a5.409,5.409,0,0,0-4.63-2.2c-3.766,0-6.3,2.877-6.3,6.617C219.71,123.014,222.247,125.891,226.013,125.891Zm9.072-.314v-8.945a4.62,4.62,0,0,1,3.426-2.014,3.484,3.484,0,0,1,.785.078v-2.014a5.37,5.37,0,0,0-4.211,2.3v-2.04h-1.962v12.633h1.962Zm12.107,0.314a6.862,6.862,0,0,0,5.022-1.936l-0.942-1.281a5.523,5.523,0,0,1-3.9,1.595,4.452,4.452,0,0,1-4.551-4.368H253.05v-0.5c0-3.792-2.249-6.774-6.068-6.774A6.639,6.639,0,0,0,247.192,125.891Zm3.923-7.428h-8.291a4.213,4.213,0,0,1,4.132-4.211A4.1,4.1,0,0,1,251.115,118.463Zm15.95,7.114V112.944h-1.988v1.909a5.2,5.2,0,0,0-4.237-2.223c-3.322,0-5.624,2.615-5.624,6.643,0,4.107,2.328,6.618,5.624,6.618a5.321,5.321,0,0,0,4.263-2.2v1.883h1.962Zm-5.755-1.439c-2.537,0-4.054-2.066-4.054-4.865s1.517-4.891,4.054-4.891a4.743,4.743,0,0,1,3.793,2.04v5.729A4.7,4.7,0,0,1,261.31,124.138Zm12.6,1.753a3.205,3.205,0,0,0,2.354-.811l-0.575-1.465a1.893,1.893,0,0,1-1.334.523,1.362,1.362,0,0,1-1.282-1.621V114.67h2.564v-1.726h-2.564v-3.453h-1.961v3.453h-2.093v1.726h2.093v8.265C271.114,124.818,272.055,125.891,273.912,125.891Zm9.937,0a6.862,6.862,0,0,0,5.022-1.936l-0.942-1.281a5.523,5.523,0,0,1-3.9,1.595,4.452,4.452,0,0,1-4.551-4.368h10.227v-0.5c0-3.792-2.25-6.774-6.068-6.774A6.639,6.639,0,0,0,283.849,125.891Zm3.923-7.428h-8.291a4.213,4.213,0,0,1,4.132-4.211A4.1,4.1,0,0,1,287.772,118.463ZM303.8,130.7c3.112,0,5.78-1.7,5.78-5.466V112.944h-1.961v9.05a4.834,4.834,0,0,1-3.741,1.909c-1.7,0-2.824-.654-2.824-2.9v-8.056H299.09V121.6c0,2.747,1.386,4.028,4.028,4.028a6.182,6.182,0,0,0,4.5-2.092v1.7a3.5,3.5,0,0,1-3.819,3.845,4.69,4.69,0,0,1-3.845-1.727l-0.994,1.465A6.361,6.361,0,0,0,303.8,130.7Zm14.956-4.812c3.845,0,6.251-2.982,6.251-6.644s-2.406-6.617-6.251-6.617-6.251,2.955-6.251,6.617S314.909,125.891,318.754,125.891Zm0-1.753c-2.694,0-4.211-2.3-4.211-4.891,0-2.563,1.517-4.865,4.211-4.865s4.185,2.3,4.185,4.865C322.939,121.837,321.448,124.138,318.754,124.138Zm19.664,1.439V112.944h-1.962v9.285a4.832,4.832,0,0,1-3.74,1.909c-1.7,0-2.825-.654-2.825-2.877v-8.317H327.93v8.919c0,2.746,1.386,4.028,4.027,4.028a6.178,6.178,0,0,0,4.5-2.093v1.779h1.962Zm5.618,0v-8.945a4.624,4.624,0,0,1,3.427-2.014,3.484,3.484,0,0,1,.785.078v-2.014a5.372,5.372,0,0,0-4.212,2.3v-2.04h-1.961v12.633h1.961Zm18.409,0.314c3.844,0,6.251-2.982,6.251-6.644s-2.407-6.617-6.251-6.617-6.252,2.955-6.252,6.617S358.6,125.891,362.445,125.891Zm0-1.753c-2.694,0-4.212-2.3-4.212-4.891,0-2.563,1.518-4.865,4.212-4.865s4.184,2.3,4.184,4.865C366.629,121.837,365.139,124.138,362.445,124.138Zm22.07,1.439,4.028-12.633H386.5l-3.086,10.07-3.322-10.07H378.42l-3.321,10.07-3.087-10.07h-2.04L374,125.577h1.962l3.3-10.148,3.3,10.148h1.962Zm16.523,0V116.71c0-2.746-1.386-4.08-4.028-4.08a6.262,6.262,0,0,0-4.5,2.145v-1.831H390.55v12.633h1.962v-9.233a4.877,4.877,0,0,1,3.74-1.962c1.7,0,2.825.707,2.825,2.93v8.265h1.961Zm16.367,0.314c3.321,0,5.623-2.563,5.623-6.644,0-4.106-2.3-6.617-5.623-6.617a5.281,5.281,0,0,0-4.264,2.2v-1.883H411.18v17.445h1.961v-6.721A5.178,5.178,0,0,0,417.405,125.891Zm-0.5-1.753a4.693,4.693,0,0,1-3.767-2.04v-5.7a4.673,4.673,0,0,1,3.767-2.014c2.537,0,4.054,2.067,4.054,4.865S419.445,124.138,416.908,124.138Zm14.668,1.753a6.862,6.862,0,0,0,5.022-1.936l-0.942-1.281a5.523,5.523,0,0,1-3.9,1.595,4.452,4.452,0,0,1-4.551-4.368h10.227v-0.5c0-3.792-2.25-6.774-6.068-6.774A6.639,6.639,0,0,0,431.576,125.891Zm3.923-7.428h-8.291a4.213,4.213,0,0,1,4.132-4.211A4.1,4.1,0,0,1,435.5,118.463Zm6.795,7.114v-8.945a4.624,4.624,0,0,1,3.427-2.014,3.468,3.468,0,0,1,.784.078v-2.014a5.372,5.372,0,0,0-4.211,2.3v-2.04h-1.961v12.633h1.961Zm10.407,0.314c3.27,0,4.97-1.7,4.97-3.819,0-4.917-7.821-3.086-7.821-5.859,0-1.124,1.073-1.988,2.8-1.988a4.918,4.918,0,0,1,3.766,1.6l0.916-1.36a6.393,6.393,0,0,0-4.682-1.831c-3.008,0-4.708,1.674-4.708,3.636,0,4.681,7.82,2.8,7.82,5.858,0,1.256-1.046,2.171-2.981,2.171a5.726,5.726,0,0,1-4.159-1.8L447.6,123.9A6.719,6.719,0,0,0,452.7,125.891Zm13.414,0c3.845,0,6.251-2.982,6.251-6.644s-2.406-6.617-6.251-6.617-6.251,2.955-6.251,6.617S462.27,125.891,466.115,125.891Zm0-1.753c-2.694,0-4.211-2.3-4.211-4.891,0-2.563,1.517-4.865,4.211-4.865s4.185,2.3,4.185,4.865C470.3,121.837,468.809,124.138,466.115,124.138Zm19.664,1.439V116.71c0-2.746-1.387-4.08-4.028-4.08a6.264,6.264,0,0,0-4.5,2.145v-1.831H475.29v12.633h1.962v-9.233a4.877,4.877,0,0,1,3.74-1.962c1.7,0,2.825.707,2.825,2.93v8.265h1.962Zm14.773,0V112.944h-1.988v1.909a5.2,5.2,0,0,0-4.237-2.223c-3.322,0-5.624,2.615-5.624,6.643,0,4.107,2.328,6.618,5.624,6.618a5.321,5.321,0,0,0,4.263-2.2v1.883h1.962Zm-5.755-1.439c-2.537,0-4.054-2.066-4.054-4.865s1.517-4.891,4.054-4.891a4.743,4.743,0,0,1,3.793,2.04v5.729A4.7,4.7,0,0,1,494.8,124.138Zm12.21,1.753a3.137,3.137,0,0,0,2.328-.811l-0.576-1.465a1.823,1.823,0,0,1-1.307.523,1.362,1.362,0,0,1-1.282-1.621V108.131h-1.962v14.8C504.208,124.818,505.15,125.891,507.007,125.891Zm15.95-.314,5.257-12.633H526.07L521.885,123.3l-4.211-10.357h-2.119l5.257,12.633h2.145Zm8-14.438a1.317,1.317,0,0,0,1.334-1.308,1.321,1.321,0,1,0-2.641,0A1.311,1.311,0,0,0,530.956,111.139Zm0.994,14.438V112.944h-1.961v12.633h1.961Zm14.776,0V108.131h-1.962v6.722a5.282,5.282,0,0,0-4.263-2.223c-3.322,0-5.623,2.615-5.623,6.643,0,4.107,2.327,6.618,5.623,6.618a5.318,5.318,0,0,0,4.263-2.2v1.883h1.962Zm-5.754-1.439c-2.537,0-4.054-2.066-4.054-4.865s1.517-4.891,4.054-4.891a4.743,4.743,0,0,1,3.792,2.04v5.729A4.7,4.7,0,0,1,540.972,124.138Zm15.113,1.753a6.858,6.858,0,0,0,5.021-1.936l-0.941-1.281a5.523,5.523,0,0,1-3.9,1.595,4.452,4.452,0,0,1-4.551-4.368h10.226v-0.5c0-3.792-2.249-6.774-6.068-6.774A6.639,6.639,0,0,0,556.085,125.891Zm3.923-7.428h-8.291a4.213,4.213,0,0,1,4.132-4.211A4.1,4.1,0,0,1,560.008,118.463Zm10.352,7.428c3.845,0,6.252-2.982,6.252-6.644s-2.407-6.617-6.252-6.617-6.251,2.955-6.251,6.617S566.516,125.891,570.36,125.891Zm0-1.753c-2.694,0-4.211-2.3-4.211-4.891,0-2.563,1.517-4.865,4.211-4.865s4.185,2.3,4.185,4.865C574.545,121.837,573.054,124.138,570.36,124.138Zm21.179,1.753c3.845,0,6.251-2.982,6.251-6.644s-2.406-6.617-6.251-6.617-6.251,2.955-6.251,6.617S587.694,125.891,591.539,125.891Zm0-1.753c-2.694,0-4.211-2.3-4.211-4.891,0-2.563,1.517-4.865,4.211-4.865s4.185,2.3,4.185,4.865C595.724,121.837,594.233,124.138,591.539,124.138Zm11.137,1.439v-8.945a4.62,4.62,0,0,1,3.426-2.014,3.477,3.477,0,0,1,.785.078v-2.014a5.37,5.37,0,0,0-4.211,2.3v-2.04h-1.962v12.633h1.962Zm19.114,0.314c3.322,0,5.624-2.563,5.624-6.644,0-4.106-2.3-6.617-5.624-6.617a5.279,5.279,0,0,0-4.263,2.2v-1.883h-1.962v17.445h1.962v-6.721A5.177,5.177,0,0,0,621.79,125.891Zm-0.5-1.753a4.691,4.691,0,0,1-3.766-2.04v-5.7a4.672,4.672,0,0,1,3.766-2.014c2.537,0,4.054,2.067,4.054,4.865S623.83,124.138,621.293,124.138Zm19.481,1.439v-8.919c0-2.746-1.386-4.028-4.028-4.028a6.276,6.276,0,0,0-4.525,2.145v-6.644h-1.962v17.446h1.962v-9.233a4.966,4.966,0,0,1,3.74-1.962c1.7,0,2.851.654,2.851,2.877v8.318h1.962Zm9.175,0.314c3.845,0,6.252-2.982,6.252-6.644s-2.407-6.617-6.252-6.617-6.251,2.955-6.251,6.617S646.105,125.891,649.949,125.891Zm0-1.753c-2.694,0-4.211-2.3-4.211-4.891,0-2.563,1.517-4.865,4.211-4.865s4.185,2.3,4.185,4.865C654.134,121.837,652.643,124.138,649.949,124.138Zm12.367,1.753a3.205,3.205,0,0,0,2.354-.811l-0.576-1.465a1.889,1.889,0,0,1-1.334.523,1.361,1.361,0,0,1-1.281-1.621V114.67h2.563v-1.726h-2.563v-3.453h-1.962v3.453h-2.092v1.726h2.092v8.265C659.517,124.818,660.459,125.891,662.316,125.891Zm9.753,0c3.845,0,6.251-2.982,6.251-6.644s-2.406-6.617-6.251-6.617-6.251,2.955-6.251,6.617S668.224,125.891,672.069,125.891Zm0-1.753c-2.694,0-4.211-2.3-4.211-4.891,0-2.563,1.517-4.865,4.211-4.865s4.185,2.3,4.185,4.865C676.254,121.837,674.763,124.138,672.069,124.138Zm26.148,1.439V112.944h-1.961v9.285a4.836,4.836,0,0,1-3.741,1.909c-1.7,0-2.825-.654-2.825-2.877v-8.317h-1.961v8.919c0,2.746,1.386,4.028,4.028,4.028a6.179,6.179,0,0,0,4.5-2.093v1.779h1.961Zm7.659,0.314c3.269,0,4.969-1.7,4.969-3.819,0-4.917-7.82-3.086-7.82-5.859,0-1.124,1.072-1.988,2.8-1.988a4.921,4.921,0,0,1,3.766,1.6l0.915-1.36a6.392,6.392,0,0,0-4.681-1.831c-3.008,0-4.708,1.674-4.708,3.636,0,4.681,7.82,2.8,7.82,5.858,0,1.256-1.046,2.171-2.982,2.171a5.725,5.725,0,0,1-4.158-1.8l-1.02,1.412A6.719,6.719,0,0,0,705.876,125.891Zm8.863-14.752a1.317,1.317,0,0,0,1.333-1.308,1.321,1.321,0,1,0-2.641,0A1.311,1.311,0,0,0,714.739,111.139Zm0.993,14.438V112.944h-1.961v12.633h1.961Zm14.148,0V116.71c0-2.746-1.386-4.08-4.027-4.08a6.262,6.262,0,0,0-4.5,2.145v-1.831h-1.962v12.633h1.962v-9.233a4.877,4.877,0,0,1,3.74-1.962c1.7,0,2.825.707,2.825,2.93v8.265h1.961Zm8.732,5.126c3.086,0,6.015-1.307,6.015-5.492V112.944h-1.961v1.909a5.235,5.235,0,0,0-4.238-2.223c-3.321,0-5.623,2.511-5.623,6.565,0,4.08,2.328,6.539,5.623,6.539a5.278,5.278,0,0,0,4.238-2.25v1.805c0,2.773-1.962,3.793-4.054,3.793a4.824,4.824,0,0,1-4.107-1.727l-0.994,1.465A6.455,6.455,0,0,0,738.612,130.7Zm0.287-6.7c-2.537,0-4.054-2.041-4.054-4.813,0-2.8,1.517-4.813,4.054-4.813a4.655,4.655,0,0,1,3.767,2.04v5.519A4.676,4.676,0,0,1,738.9,124.008Zm21.6,1.883c4.708,0,6.434-2.59,6.434-5.127,0-6.512-10.331-4.263-10.331-8.186,0-1.648,1.491-2.773,3.583-2.773a6.673,6.673,0,0,1,5.048,2.093l1.308-1.6a8.2,8.2,0,0,0-6.2-2.432c-3.426,0-5.989,1.961-5.989,4.838,0,6.225,10.331,3.741,10.331,8.239,0,1.334-.994,3.008-4.106,3.008a7.373,7.373,0,0,1-5.493-2.485l-1.282,1.648A8.639,8.639,0,0,0,760.5,125.891Zm12.079,0a3.205,3.205,0,0,0,2.354-.811l-0.575-1.465a1.893,1.893,0,0,1-1.334.523,1.362,1.362,0,0,1-1.282-1.621V114.67H774.3v-1.726h-2.563v-3.453h-1.961v3.453h-2.093v1.726h2.093v8.265C769.777,124.818,770.718,125.891,772.575,125.891Zm6.2-.314v-8.945a4.624,4.624,0,0,1,3.427-2.014,3.468,3.468,0,0,1,.784.078v-2.014a5.37,5.37,0,0,0-4.211,2.3v-2.04H776.81v12.633h1.961Zm11.924,0.314c3.845,0,6.251-2.982,6.251-6.644s-2.406-6.617-6.251-6.617-6.251,2.955-6.251,6.617S786.85,125.891,790.7,125.891Zm0-1.753c-2.694,0-4.211-2.3-4.211-4.891,0-2.563,1.517-4.865,4.211-4.865s4.185,2.3,4.185,4.865C794.88,121.837,793.389,124.138,790.7,124.138Zm19.664,1.439V116.71c0-2.746-1.386-4.08-4.028-4.08a6.264,6.264,0,0,0-4.5,2.145v-1.831h-1.961v12.633h1.961v-9.233a4.879,4.879,0,0,1,3.74-1.962c1.7,0,2.825.707,2.825,2.93v8.265h1.962Zm8.731,5.126c3.086,0,6.016-1.307,6.016-5.492V112.944h-1.962v1.909a5.234,5.234,0,0,0-4.237-2.223c-3.322,0-5.624,2.511-5.624,6.565,0,4.08,2.328,6.539,5.624,6.539a5.277,5.277,0,0,0,4.237-2.25v1.805c0,2.773-1.962,3.793-4.054,3.793a4.822,4.822,0,0,1-4.106-1.727l-0.994,1.465A6.452,6.452,0,0,0,819.09,130.7Zm0.288-6.7c-2.537,0-4.054-2.041-4.054-4.813,0-2.8,1.517-4.813,4.054-4.813a4.655,4.655,0,0,1,3.766,2.04v5.519A4.675,4.675,0,0,1,819.378,124.008Zm15.086,1.883a6.861,6.861,0,0,0,5.022-1.936l-0.942-1.281a5.519,5.519,0,0,1-3.9,1.595A4.452,4.452,0,0,1,830.1,119.9h10.227v-0.5c0-3.792-2.249-6.774-6.068-6.774A6.639,6.639,0,0,0,834.464,125.891Zm3.924-7.428H830.1a4.215,4.215,0,0,1,4.133-4.211A4.1,4.1,0,0,1,838.388,118.463Zm6.795,7.114v-8.945a4.62,4.62,0,0,1,3.426-2.014,3.484,3.484,0,0,1,.785.078v-2.014a5.37,5.37,0,0,0-4.211,2.3v-2.04h-1.962v12.633h1.962Zm9.047-15.72a1.76,1.76,0,0,0-1.648-1.987,1.4,1.4,0,0,0-1.386,1.412,1.244,1.244,0,0,0,1.255,1.334,1.215,1.215,0,0,0,.366-0.052,3.968,3.968,0,0,1-1.7,2.432l0.968,0.811A5.05,5.05,0,0,0,854.23,109.857Zm6.327,16.034c3.27,0,4.97-1.7,4.97-3.819,0-4.917-7.821-3.086-7.821-5.859,0-1.124,1.073-1.988,2.8-1.988a4.918,4.918,0,0,1,3.766,1.6l0.916-1.36a6.393,6.393,0,0,0-4.682-1.831c-3.008,0-4.708,1.674-4.708,3.636,0,4.681,7.821,2.8,7.821,5.858,0,1.256-1.047,2.171-2.982,2.171a5.728,5.728,0,0,1-4.159-1.8l-1.02,1.412A6.72,6.72,0,0,0,860.557,125.891ZM95.621,156.707c4.708,0,6.434-2.59,6.434-5.127,0-6.513-10.331-4.263-10.331-8.187,0-1.647,1.491-2.772,3.583-2.772a6.676,6.676,0,0,1,5.048,2.092l1.308-1.595a8.2,8.2,0,0,0-6.2-2.432c-3.426,0-5.99,1.961-5.99,4.838,0,6.225,10.331,3.741,10.331,8.239,0,1.334-.994,3.008-4.106,3.008a7.373,7.373,0,0,1-5.493-2.485l-1.282,1.648A8.638,8.638,0,0,0,95.621,156.707Zm15.741-.314v-15.51h5.545v-1.936H103.672v1.936h5.519v15.51h2.171Zm20.815,0-4.708-7.115a4.82,4.82,0,0,0,4.524-5.074c0-3.217-2.275-5.257-5.466-5.257h-7.01v17.446h2.171v-6.931h3.479l4.446,6.931h2.564Zm-5.912-8.841h-4.577v-6.669h4.577A3.338,3.338,0,1,1,126.265,147.552Zm20.318,8.841v-1.936h-9.259v-6.016H146.4v-1.935h-9.076v-5.623h9.259v-1.936h-11.43v17.446h11.43Zm17.623,0V138.947h-2.171v13.627l-10.043-13.627h-2.224v17.446h2.171V142.478l10.175,13.915h2.092Zm11.921,0.34c5.362,0,8.37-3.845,8.37-9.312h-9.521v1.936h7.167c-0.419,2.877-2.276,5.44-5.859,5.44-3.819,0-6.722-2.981-6.722-7.114,0-4.159,2.9-7.088,6.722-7.088A6.436,6.436,0,0,1,181.332,143l1.726-1.072a8.315,8.315,0,0,0-6.774-3.27A9.039,9.039,0,0,0,176.127,156.733Zm17.126-.34v-15.51H198.8v-1.936H185.563v1.936h5.519v15.51h2.171Zm22.7,0V138.947h-2.17v7.507h-10.2v-7.507h-2.171v17.446h2.171v-8h10.2v8h2.17Zm16.26,0c5.415,0,8.946-3.74,8.946-8.71,0-4.943-3.531-8.736-8.946-8.736h-5.963v17.446h5.963Zm0-1.936h-3.792V140.883h3.792c4.316,0,6.7,3.034,6.7,6.8A6.415,6.415,0,0,1,232.21,154.457Zm23.508,1.936v-1.936h-9.259v-6.016h9.076v-1.935h-9.076v-5.623h9.259v-1.936h-11.43v17.446h11.43Zm5.357,0v-7.952h9.076v-1.935h-9.076v-5.623h9.259v-1.936H258.9v17.446h2.171Zm14.119,0V138.947h-2.171v17.446h2.171Zm18.254,0V138.947h-2.171v13.627l-10.043-13.627H279.01v17.446h2.171V142.478l10.175,13.915h2.092Zm15.243,0v-1.936h-9.259v-6.016h9.076v-1.935h-9.076v-5.623h9.259v-1.936h-11.43v17.446h11.43Zm8.835,0.314c4.708,0,6.434-2.59,6.434-5.127,0-6.513-10.331-4.263-10.331-8.187,0-1.647,1.491-2.772,3.583-2.772a6.678,6.678,0,0,1,5.048,2.092l1.308-1.595a8.2,8.2,0,0,0-6.2-2.432c-3.426,0-5.99,1.961-5.99,4.838,0,6.225,10.332,3.741,10.332,8.239,0,1.334-.994,3.008-4.107,3.008a7.373,7.373,0,0,1-5.492-2.485l-1.282,1.648A8.639,8.639,0,0,0,317.526,156.707Zm23.009,0c4.735,0,7.115-2.773,7.115-7.115V138.947h-2.171v10.619c0,3.191-1.726,5.2-4.944,5.2s-4.943-2.014-4.943-5.2V138.947h-2.171v10.671C333.421,153.908,335.8,156.707,340.535,156.707Zm16.577,0c4.708,0,6.434-2.59,6.434-5.127,0-6.513-10.331-4.263-10.331-8.187,0-1.647,1.491-2.772,3.583-2.772a6.678,6.678,0,0,1,5.048,2.092l1.308-1.595a8.2,8.2,0,0,0-6.2-2.432c-3.426,0-5.99,1.961-5.99,4.838,0,6.225,10.332,3.741,10.332,8.239,0,1.334-.994,3.008-4.107,3.008a7.371,7.371,0,0,1-5.492-2.485l-1.282,1.648A8.639,8.639,0,0,0,357.112,156.707Zm18.328-.314V145.486H378V143.76H375.44v-0.968c0-1.6.706-2.485,1.987-2.485a1.982,1.982,0,0,1,1.125.314l0.5-1.491a3.621,3.621,0,0,0-1.909-.444c-2.2,0-3.662,1.49-3.662,4.106v0.968h-2.093v1.726h2.093v10.907h1.962Zm5.858-14.438a1.317,1.317,0,0,0,1.334-1.308,1.321,1.321,0,1,0-2.641,0A1.311,1.311,0,0,0,381.3,141.955Zm0.994,14.438V143.76h-1.961v12.633h1.961Zm6.482,0.314a3.137,3.137,0,0,0,2.328-.811l-0.575-1.465a1.827,1.827,0,0,1-1.308.523,1.362,1.362,0,0,1-1.282-1.621V138.947h-1.961v14.8C385.976,155.634,386.917,156.707,388.774,156.707Zm7.138,0a3.205,3.205,0,0,0,2.354-.811l-0.575-1.465a1.893,1.893,0,0,1-1.334.523,1.362,1.362,0,0,1-1.282-1.621v-7.847h2.563V143.76h-2.563v-3.453h-1.962v3.453h-2.092v1.726h2.092v8.265C393.113,155.634,394.055,156.707,395.912,156.707Zm9.936,0a6.859,6.859,0,0,0,5.022-1.936l-0.941-1.281a5.523,5.523,0,0,1-3.9,1.595,4.452,4.452,0,0,1-4.552-4.368h10.227v-0.5c0-3.792-2.249-6.774-6.068-6.774A6.639,6.639,0,0,0,405.848,156.707Zm3.924-7.429H401.48a4.216,4.216,0,0,1,4.133-4.211A4.1,4.1,0,0,1,409.772,149.278Zm6.8,7.115v-8.945a4.62,4.62,0,0,1,3.426-2.014,3.477,3.477,0,0,1,.785.078V143.5a5.37,5.37,0,0,0-4.211,2.3v-2.04h-1.962v12.633h1.962Zm5.281,0.261a1.439,1.439,0,1,0-1.438-1.438A1.451,1.451,0,0,0,421.848,156.654Zm16.919,0.053c4.708,0,6.434-2.59,6.434-5.127,0-6.513-10.332-4.263-10.332-8.187,0-1.647,1.491-2.772,3.584-2.772a6.678,6.678,0,0,1,5.048,2.092l1.307-1.595a8.2,8.2,0,0,0-6.2-2.432c-3.427,0-5.99,1.961-5.99,4.838,0,6.225,10.331,3.741,10.331,8.239,0,1.334-.994,3.008-4.106,3.008a7.373,7.373,0,0,1-5.493-2.485l-1.281,1.648A8.636,8.636,0,0,0,438.767,156.707Zm19.846-.314v-8.919c0-2.747-1.386-4.028-4.027-4.028a6.274,6.274,0,0,0-4.525,2.145v-6.644H448.1v17.446h1.962V147.16a4.965,4.965,0,0,1,3.74-1.962c1.7,0,2.851.654,2.851,2.877v8.318h1.961Zm14.773,0V143.76H471.4v1.909a5.2,5.2,0,0,0-4.237-2.223c-3.322,0-5.623,2.615-5.623,6.643,0,4.107,2.328,6.618,5.623,6.618a5.321,5.321,0,0,0,4.264-2.2v1.883h1.961Zm-5.754-1.439c-2.537,0-4.054-2.066-4.054-4.865s1.517-4.891,4.054-4.891a4.746,4.746,0,0,1,3.793,2.04v5.728A4.7,4.7,0,0,1,467.632,154.954Zm11.373,1.439v-8.945a4.62,4.62,0,0,1,3.426-2.014,3.484,3.484,0,0,1,.785.078V143.5a5.368,5.368,0,0,0-4.211,2.3v-2.04h-1.962v12.633h1.962Zm12.106,0.314a6.859,6.859,0,0,0,5.022-1.936l-0.941-1.281a5.523,5.523,0,0,1-3.9,1.595,4.45,4.45,0,0,1-4.551-4.368H496.97v-0.5c0-3.792-2.249-6.774-6.068-6.774A6.639,6.639,0,0,0,491.111,156.707Zm3.924-7.429h-8.291a4.214,4.214,0,0,1,4.132-4.211A4.1,4.1,0,0,1,495.035,149.278Zm24.212,7.115,4.028-12.633h-2.04l-3.086,10.07-3.322-10.07h-1.674l-3.322,10.07-3.086-10.07h-2.04l4.028,12.633H510.7l3.3-10.149,3.3,10.149h1.961Zm7-14.438a1.317,1.317,0,0,0,1.334-1.308,1.321,1.321,0,1,0-2.642,0A1.311,1.311,0,0,0,526.251,141.955Zm0.994,14.438V143.76h-1.962v12.633h1.962Zm6.85,0.314a3.205,3.205,0,0,0,2.354-.811l-0.575-1.465a1.893,1.893,0,0,1-1.334.523,1.362,1.362,0,0,1-1.282-1.621v-7.847h2.563V143.76h-2.563v-3.453H531.3v3.453H529.2v1.726H531.3v8.265C531.3,155.634,532.238,156.707,534.1,156.707Zm14.749-.314v-8.919c0-2.747-1.386-4.028-4.028-4.028a6.277,6.277,0,0,0-4.525,2.145v-6.644H538.33v17.446h1.961V147.16a4.968,4.968,0,0,1,3.741-1.962c1.7,0,2.85.654,2.85,2.877v8.318h1.962Zm13.332,0.314a3.205,3.205,0,0,0,2.354-.811l-0.575-1.465a1.893,1.893,0,0,1-1.334.523,1.362,1.362,0,0,1-1.282-1.621v-7.847H563.9V143.76h-2.563v-3.453h-1.962v3.453h-2.092v1.726h2.092v8.265C559.377,155.634,560.319,156.707,562.176,156.707Zm14.749-.314v-8.919c0-2.747-1.386-4.028-4.028-4.028a6.276,6.276,0,0,0-4.525,2.145v-6.644h-1.961v17.446h1.961V147.16a4.966,4.966,0,0,1,3.74-1.962c1.7,0,2.851.654,2.851,2.877v8.318h1.962Zm9.359,0.314a6.858,6.858,0,0,0,5.021-1.936l-0.941-1.281a5.523,5.523,0,0,1-3.9,1.595,4.452,4.452,0,0,1-4.551-4.368h10.226v-0.5c0-3.792-2.249-6.774-6.068-6.774A6.639,6.639,0,0,0,586.284,156.707Zm3.923-7.429h-8.291a4.214,4.214,0,0,1,4.132-4.211A4.1,4.1,0,0,1,590.207,149.278Zm24.213,7.115,4.028-12.633h-2.041l-3.086,10.07L610,143.76h-1.674L605,153.83l-3.087-10.07h-2.04l4.028,12.633h1.962l3.3-10.149,3.3,10.149h1.962Zm11.554,0.314c3.845,0,6.251-2.982,6.251-6.644s-2.406-6.617-6.251-6.617-6.251,2.955-6.251,6.617S622.129,156.707,625.974,156.707Zm0-1.753c-2.694,0-4.211-2.3-4.211-4.891,0-2.563,1.517-4.865,4.211-4.865s4.185,2.3,4.185,4.865C630.159,152.653,628.668,154.954,625.974,154.954Zm11.137,1.439v-8.945a4.62,4.62,0,0,1,3.426-2.014,3.477,3.477,0,0,1,.785.078V143.5a5.37,5.37,0,0,0-4.211,2.3v-2.04h-1.962v12.633h1.962Zm9.2,0.314a3.137,3.137,0,0,0,2.328-.811l-0.575-1.465a1.827,1.827,0,0,1-1.308.523,1.361,1.361,0,0,1-1.281-1.621V138.947h-1.962v14.8C643.516,155.634,644.457,156.707,646.314,156.707Zm15.064-.314V138.947h-1.962v6.722a5.282,5.282,0,0,0-4.263-2.223c-3.322,0-5.624,2.615-5.624,6.643,0,4.107,2.328,6.618,5.624,6.618a5.321,5.321,0,0,0,4.263-2.2v1.883h1.962Zm-5.755-1.439c-2.537,0-4.054-2.066-4.054-4.865s1.517-4.891,4.054-4.891a4.743,4.743,0,0,1,3.793,2.04v5.728A4.7,4.7,0,0,1,655.623,154.954Zm20.6,6.565c3.112,0,5.78-1.7,5.78-5.466V143.76h-1.962v9.049a4.83,4.83,0,0,1-3.74,1.91c-1.7,0-2.825-.654-2.825-2.9V143.76h-1.961v8.657c0,2.746,1.386,4.028,4.028,4.028a6.178,6.178,0,0,0,4.5-2.092v1.7a3.5,3.5,0,0,1-3.818,3.845,4.691,4.691,0,0,1-3.845-1.727l-0.994,1.465A6.36,6.36,0,0,0,676.227,161.519Zm14.956-4.812c3.844,0,6.251-2.982,6.251-6.644s-2.407-6.617-6.251-6.617-6.252,2.955-6.252,6.617S687.338,156.707,691.183,156.707Zm0-1.753c-2.694,0-4.211-2.3-4.211-4.891,0-2.563,1.517-4.865,4.211-4.865s4.185,2.3,4.185,4.865C695.368,152.653,693.877,154.954,691.183,154.954Zm19.663,1.439V143.76h-1.961v9.285a4.834,4.834,0,0,1-3.74,1.909c-1.7,0-2.825-.654-2.825-2.877V143.76h-1.962v8.919c0,2.746,1.386,4.028,4.028,4.028a6.179,6.179,0,0,0,4.5-2.093v1.779h1.961Zm5.619,0v-8.945a4.62,4.62,0,0,1,3.426-2.014,3.477,3.477,0,0,1,.785.078V143.5a5.37,5.37,0,0,0-4.211,2.3v-2.04H714.5v12.633h1.962Zm18.408,0.314c3.845,0,6.251-2.982,6.251-6.644s-2.406-6.617-6.251-6.617-6.251,2.955-6.251,6.617S731.028,156.707,734.873,156.707Zm0-1.753c-2.694,0-4.211-2.3-4.211-4.891,0-2.563,1.517-4.865,4.211-4.865s4.185,2.3,4.185,4.865C739.058,152.653,737.567,154.954,734.873,154.954Zm22.07,1.439,4.028-12.633h-2.04l-3.086,10.07-3.322-10.07h-1.674l-3.322,10.07-3.086-10.07H742.4l4.028,12.633h1.961l3.3-10.149,3.295,10.149h1.962Zm16.524,0v-8.867c0-2.746-1.386-4.08-4.028-4.08a6.266,6.266,0,0,0-4.5,2.145V143.76h-1.961v12.633h1.961V147.16a4.879,4.879,0,0,1,3.74-1.962c1.7,0,2.825.706,2.825,2.93v8.265h1.962Zm14.143,0.314c3.269,0,4.969-1.7,4.969-3.819,0-4.917-7.82-3.086-7.82-5.859,0-1.125,1.072-1.988,2.8-1.988a4.921,4.921,0,0,1,3.766,1.6l0.915-1.36a6.392,6.392,0,0,0-4.681-1.831c-3.008,0-4.708,1.674-4.708,3.635,0,4.682,7.82,2.8,7.82,5.859,0,1.256-1.046,2.171-2.982,2.171a5.722,5.722,0,0,1-4.158-1.8l-1.02,1.413A6.719,6.719,0,0,0,787.61,156.707Zm11.086,0a3.205,3.205,0,0,0,2.354-.811l-0.576-1.465a1.889,1.889,0,0,1-1.334.523,1.361,1.361,0,0,1-1.281-1.621v-7.847h2.563V143.76h-2.563v-3.453H795.9v3.453h-2.092v1.726H795.9v8.265C795.9,155.634,796.839,156.707,798.7,156.707Zm9.753,0c3.845,0,6.251-2.982,6.251-6.644s-2.406-6.617-6.251-6.617-6.251,2.955-6.251,6.617S804.6,156.707,808.449,156.707Zm0-1.753c-2.694,0-4.211-2.3-4.211-4.891,0-2.563,1.517-4.865,4.211-4.865s4.185,2.3,4.185,4.865C812.634,152.653,811.143,154.954,808.449,154.954Zm11.137,1.439v-8.945a4.622,4.622,0,0,1,3.427-2.014,3.474,3.474,0,0,1,.784.078V143.5a5.37,5.37,0,0,0-4.211,2.3v-2.04h-1.962v12.633h1.962Zm11.113,5.126c3.113,0,5.78-1.7,5.78-5.466V143.76h-1.961v9.049a4.832,4.832,0,0,1-3.74,1.91c-1.7,0-2.825-.654-2.825-2.9V143.76h-1.962v8.657c0,2.746,1.386,4.028,4.028,4.028a6.182,6.182,0,0,0,4.5-2.092v1.7A3.5,3.5,0,0,1,830.7,159.9a4.693,4.693,0,0,1-3.845-1.727l-0.994,1.465A6.361,6.361,0,0,0,830.7,161.519Zm21.44-4.812c3.845,0,6.252-2.982,6.252-6.644s-2.407-6.617-6.252-6.617-6.251,2.955-6.251,6.617S848.3,156.707,852.139,156.707Zm0-1.753c-2.694,0-4.211-2.3-4.211-4.891,0-2.563,1.517-4.865,4.211-4.865s4.185,2.3,4.185,4.865C856.324,152.653,854.833,154.954,852.139,154.954Zm11.687,1.439V145.486h2.563V143.76h-2.563v-0.968c0-1.6.706-2.485,1.988-2.485a2.308,2.308,0,0,1,1.569.628l0.811-1.282a3.677,3.677,0,0,0-2.668-.967c-2.25,0-3.662,1.517-3.662,4.106v0.968h-2.092v1.726h2.092v10.907h1.962ZM193.9,183.782v-5.728a4.7,4.7,0,0,1,3.767-2.04c2.563,0,4.08,2.093,4.08,4.891s-1.517,4.865-4.08,4.865A4.649,4.649,0,0,1,193.9,183.782Zm0,3.427v-1.884a5.32,5.32,0,0,0,4.264,2.2c3.295,0,5.623-2.511,5.623-6.618,0-4.028-2.328-6.643-5.623-6.643a5.247,5.247,0,0,0-4.264,2.223v-6.722h-1.961v17.446H193.9Zm18.513,0.314a6.863,6.863,0,0,0,5.022-1.936l-0.941-1.282a5.523,5.523,0,0,1-3.9,1.6,4.45,4.45,0,0,1-4.551-4.368h10.226v-0.5c0-3.793-2.249-6.774-6.068-6.774A6.639,6.639,0,0,0,212.417,187.523Zm3.924-7.429H208.05a4.214,4.214,0,0,1,4.132-4.211A4.1,4.1,0,0,1,216.341,180.094Zm15.95,7.115V174.576H230.3v1.909a5.2,5.2,0,0,0-4.237-2.223c-3.322,0-5.624,2.615-5.624,6.643,0,4.107,2.328,6.618,5.624,6.618a5.319,5.319,0,0,0,4.263-2.2v1.884h1.962Zm-5.755-1.439c-2.537,0-4.054-2.066-4.054-4.865s1.517-4.891,4.054-4.891a4.743,4.743,0,0,1,3.793,2.04v5.728A4.7,4.7,0,0,1,226.536,185.77Zm12.6,1.753a3.21,3.21,0,0,0,2.354-.811l-0.575-1.465a1.893,1.893,0,0,1-1.334.523,1.362,1.362,0,0,1-1.282-1.622V176.3h2.564v-1.726H238.3v-3.453H236.34v3.453h-2.093V176.3h2.093v8.265C236.34,186.45,237.281,187.523,239.138,187.523Zm5.2-14.752a1.317,1.317,0,0,0,1.334-1.308,1.321,1.321,0,1,0-2.641,0A1.311,1.311,0,0,0,244.34,172.771Zm0.994,14.438V174.576h-1.961v12.633h1.961Zm14.148,0v-8.867c0-2.746-1.386-4.08-4.027-4.08a6.265,6.265,0,0,0-4.5,2.144v-1.83h-1.962v12.633h1.962v-9.233a4.877,4.877,0,0,1,3.74-1.962c1.7,0,2.825.706,2.825,2.93v8.265h1.961Zm8.732,5.126c3.086,0,6.015-1.308,6.015-5.493V174.576h-1.961v1.909a5.235,5.235,0,0,0-4.238-2.223c-3.321,0-5.623,2.511-5.623,6.565,0,4.08,2.328,6.539,5.623,6.539a5.278,5.278,0,0,0,4.238-2.25v1.8c0,2.772-1.962,3.792-4.054,3.792a4.823,4.823,0,0,1-4.107-1.726l-0.994,1.465A6.455,6.455,0,0,0,268.214,192.335Zm0.287-6.7c-2.537,0-4.054-2.04-4.054-4.812,0-2.8,1.517-4.813,4.054-4.813a4.655,4.655,0,0,1,3.767,2.04v5.519A4.675,4.675,0,0,1,268.5,185.639Zm19.06,1.884a3.21,3.21,0,0,0,2.354-.811l-0.575-1.465a1.893,1.893,0,0,1-1.334.523,1.362,1.362,0,0,1-1.282-1.622V176.3h2.563v-1.726h-2.563v-3.453h-1.962v3.453H282.67V176.3h2.092v8.265C284.762,186.45,285.7,187.523,287.561,187.523Zm14.749-.314V178.29c0-2.747-1.386-4.028-4.028-4.028a6.28,6.28,0,0,0-4.525,2.144v-6.643H291.8v17.446h1.961v-9.233a4.967,4.967,0,0,1,3.741-1.962c1.7,0,2.85.654,2.85,2.877v8.318h1.962Zm9.359,0.314a6.866,6.866,0,0,0,5.022-1.936l-0.942-1.282a5.523,5.523,0,0,1-3.9,1.6,4.452,4.452,0,0,1-4.551-4.368h10.227v-0.5c0-3.793-2.25-6.774-6.069-6.774A6.639,6.639,0,0,0,311.669,187.523Zm3.923-7.429H307.3a4.214,4.214,0,0,1,4.132-4.211A4.1,4.1,0,0,1,315.592,180.094Zm16.837,7.429c3.845,0,6.251-2.982,6.251-6.644s-2.406-6.617-6.251-6.617-6.251,2.955-6.251,6.617S328.584,187.523,332.429,187.523Zm0-1.753c-2.694,0-4.211-2.3-4.211-4.891,0-2.563,1.517-4.865,4.211-4.865s4.185,2.3,4.185,4.865C336.614,183.468,335.123,185.77,332.429,185.77Zm20.291,1.439V169.763h-1.961v6.722a5.283,5.283,0,0,0-4.264-2.223c-3.321,0-5.623,2.615-5.623,6.643,0,4.107,2.328,6.618,5.623,6.618a5.32,5.32,0,0,0,4.264-2.2v1.884h1.961Zm-5.754-1.439c-2.537,0-4.054-2.066-4.054-4.865s1.517-4.891,4.054-4.891a4.746,4.746,0,0,1,3.793,2.04v5.728A4.7,4.7,0,0,1,346.966,185.77Zm20.527,1.439V169.763h-1.962v6.722a5.282,5.282,0,0,0-4.263-2.223c-3.322,0-5.623,2.615-5.623,6.643,0,4.107,2.328,6.618,5.623,6.618a5.316,5.316,0,0,0,4.263-2.2v1.884h1.962Zm-5.754-1.439c-2.537,0-4.054-2.066-4.054-4.865s1.517-4.891,4.054-4.891a4.743,4.743,0,0,1,3.792,2.04v5.728A4.7,4.7,0,0,1,361.739,185.77Zm13.413,1.753c3.269,0,4.969-1.7,4.969-3.819,0-4.917-7.82-3.087-7.82-5.859,0-1.125,1.072-1.988,2.8-1.988a4.921,4.921,0,0,1,3.767,1.6l0.915-1.36a6.393,6.393,0,0,0-4.682-1.831c-3.008,0-4.708,1.674-4.708,3.635,0,4.682,7.821,2.8,7.821,5.859,0,1.256-1.046,2.171-2.982,2.171a5.724,5.724,0,0,1-4.159-1.8l-1.02,1.413A6.721,6.721,0,0,0,375.152,187.523Zm25.5-.314V174.576h-1.988v1.909a5.2,5.2,0,0,0-4.237-2.223c-3.322,0-5.623,2.615-5.623,6.643,0,4.107,2.327,6.618,5.623,6.618a5.316,5.316,0,0,0,4.263-2.2v1.884h1.962Zm-5.754-1.439c-2.537,0-4.054-2.066-4.054-4.865s1.517-4.891,4.054-4.891a4.743,4.743,0,0,1,3.792,2.04v5.728A4.7,4.7,0,0,1,394.893,185.77Zm19.9,1.439v-8.867c0-2.746-1.386-4.08-4.028-4.08a6.269,6.269,0,0,0-4.5,2.144v-1.83H404.3v12.633h1.961v-9.233a4.879,4.879,0,0,1,3.741-1.962c1.7,0,2.824.706,2.824,2.93v8.265h1.962Zm14.773,0V169.763H427.6v6.722a5.282,5.282,0,0,0-4.263-2.223c-3.322,0-5.623,2.615-5.623,6.643,0,4.107,2.327,6.618,5.623,6.618a5.316,5.316,0,0,0,4.263-2.2v1.884h1.962Zm-5.754-1.439c-2.537,0-4.054-2.066-4.054-4.865s1.517-4.891,4.054-4.891a4.743,4.743,0,0,1,3.792,2.04v5.728A4.7,4.7,0,0,1,423.811,185.77Zm22.12,1.753c3.322,0,5.624-2.564,5.624-6.644,0-4.106-2.3-6.617-5.624-6.617a5.279,5.279,0,0,0-4.263,2.2v-1.883h-1.962v17.445h1.962V185.3A5.176,5.176,0,0,0,445.931,187.523Zm-0.5-1.753a4.694,4.694,0,0,1-3.766-2.04v-5.7a4.672,4.672,0,0,1,3.766-2.014c2.537,0,4.054,2.066,4.054,4.865S447.971,185.77,445.434,185.77Zm14.668,1.753a6.863,6.863,0,0,0,5.022-1.936l-0.941-1.282a5.524,5.524,0,0,1-3.9,1.6,4.452,4.452,0,0,1-4.551-4.368h10.227v-0.5c0-3.793-2.249-6.774-6.068-6.774A6.639,6.639,0,0,0,460.1,187.523Zm3.924-7.429h-8.292a4.216,4.216,0,0,1,4.133-4.211A4.1,4.1,0,0,1,464.026,180.094Zm6.8,7.115v-8.946a4.62,4.62,0,0,1,3.426-2.014,3.473,3.473,0,0,1,.785.079v-2.014a5.37,5.37,0,0,0-4.211,2.3v-2.04h-1.962v12.633h1.962Zm10.407,0.314c3.269,0,4.969-1.7,4.969-3.819,0-4.917-7.82-3.087-7.82-5.859,0-1.125,1.072-1.988,2.8-1.988a4.921,4.921,0,0,1,3.767,1.6l0.915-1.36a6.393,6.393,0,0,0-4.682-1.831c-3.008,0-4.708,1.674-4.708,3.635,0,4.682,7.821,2.8,7.821,5.859,0,1.256-1.046,2.171-2.982,2.171a5.724,5.724,0,0,1-4.159-1.8l-1.02,1.413A6.721,6.721,0,0,0,481.228,187.523Zm13.6,0a6.863,6.863,0,0,0,5.022-1.936l-0.941-1.282a5.523,5.523,0,0,1-3.9,1.6,4.452,4.452,0,0,1-4.552-4.368h10.227v-0.5c0-3.793-2.249-6.774-6.068-6.774A6.639,6.639,0,0,0,494.824,187.523Zm3.924-7.429h-8.292a4.216,4.216,0,0,1,4.133-4.211A4.1,4.1,0,0,1,498.748,180.094Zm10.352,7.115,5.257-12.633h-2.144l-4.185,10.357-4.211-10.357H501.7l5.257,12.633H509.1Zm12.733,0.314a6.863,6.863,0,0,0,5.022-1.936l-0.941-1.282a5.523,5.523,0,0,1-3.9,1.6,4.45,4.45,0,0,1-4.551-4.368h10.226v-0.5c0-3.793-2.249-6.774-6.068-6.774A6.639,6.639,0,0,0,521.833,187.523Zm3.924-7.429h-8.291a4.214,4.214,0,0,1,4.132-4.211A4.1,4.1,0,0,1,525.757,180.094Zm6.8,7.115v-8.946a4.622,4.622,0,0,1,3.427-2.014,3.47,3.47,0,0,1,.784.079v-2.014a5.37,5.37,0,0,0-4.211,2.3v-2.04H530.59v12.633h1.962Zm7.373-14.438a1.318,1.318,0,0,0,1.334-1.308,1.321,1.321,0,1,0-2.642,0A1.312,1.312,0,0,0,539.925,172.771Zm0.994,14.438V174.576h-1.962v12.633h1.962Zm14.148,0v-8.867c0-2.746-1.386-4.08-4.028-4.08a6.267,6.267,0,0,0-4.5,2.144v-1.83h-1.962v12.633h1.962v-9.233a4.877,4.877,0,0,1,3.74-1.962c1.7,0,2.825.706,2.825,2.93v8.265h1.962Zm8.731,5.126c3.086,0,6.016-1.308,6.016-5.493V174.576h-1.962v1.909a5.234,5.234,0,0,0-4.237-2.223c-3.322,0-5.624,2.511-5.624,6.565,0,4.08,2.328,6.539,5.624,6.539a5.278,5.278,0,0,0,4.237-2.25v1.8c0,2.772-1.962,3.792-4.054,3.792a4.824,4.824,0,0,1-4.107-1.726l-0.993,1.465A6.452,6.452,0,0,0,563.8,192.335Zm0.288-6.7c-2.538,0-4.055-2.04-4.055-4.812,0-2.8,1.517-4.813,4.055-4.813a4.655,4.655,0,0,1,3.766,2.04v5.519A4.674,4.674,0,0,1,564.086,185.639Zm19.059,1.884a3.208,3.208,0,0,0,2.354-.811l-0.575-1.465a1.891,1.891,0,0,1-1.334.523,1.362,1.362,0,0,1-1.281-1.622V176.3h2.563v-1.726h-2.563v-3.453h-1.962v3.453h-2.093V176.3h2.093v8.265C580.347,186.45,581.288,187.523,583.145,187.523Zm14.749-.314V178.29c0-2.747-1.386-4.028-4.027-4.028a6.277,6.277,0,0,0-4.525,2.144v-6.643H587.38v17.446h1.962v-9.233a4.965,4.965,0,0,1,3.74-1.962c1.7,0,2.851.654,2.851,2.877v8.318h1.961Zm5.619,0v-8.946a4.62,4.62,0,0,1,3.426-2.014,3.479,3.479,0,0,1,.785.079v-2.014a5.37,5.37,0,0,0-4.211,2.3v-2.04h-1.962v12.633h1.962Zm11.924,0.314c3.844,0,6.251-2.982,6.251-6.644s-2.407-6.617-6.251-6.617-6.252,2.955-6.252,6.617S611.592,187.523,615.437,187.523Zm0-1.753c-2.694,0-4.211-2.3-4.211-4.891,0-2.563,1.517-4.865,4.211-4.865s4.184,2.3,4.184,4.865C619.621,183.468,618.131,185.77,615.437,185.77Zm19.663,1.439V174.576h-1.961v9.285a4.834,4.834,0,0,1-3.741,1.909c-1.7,0-2.824-.654-2.824-2.877v-8.317h-1.962V183.5c0,2.746,1.386,4.028,4.028,4.028a6.179,6.179,0,0,0,4.5-2.093v1.779H635.1Zm8.731,5.126c3.087,0,6.016-1.308,6.016-5.493V174.576h-1.962v1.909a5.234,5.234,0,0,0-4.237-2.223c-3.321,0-5.623,2.511-5.623,6.565,0,4.08,2.328,6.539,5.623,6.539a5.275,5.275,0,0,0,4.237-2.25v1.8c0,2.772-1.961,3.792-4.054,3.792a4.823,4.823,0,0,1-4.106-1.726l-0.994,1.465A6.454,6.454,0,0,0,643.831,192.335Zm0.288-6.7c-2.537,0-4.054-2.04-4.054-4.812,0-2.8,1.517-4.813,4.054-4.813a4.655,4.655,0,0,1,3.766,2.04v5.519A4.674,4.674,0,0,1,644.119,185.639Zm19.9,1.57V178.29c0-2.747-1.386-4.028-4.028-4.028a6.28,6.28,0,0,0-4.525,2.144v-6.643H653.5v17.446h1.961v-9.233a4.968,4.968,0,0,1,3.741-1.962c1.7,0,2.851.654,2.851,2.877v8.318h1.961Zm12.94,0.314a3.141,3.141,0,0,0,2.328-.811l-0.576-1.465a1.823,1.823,0,0,1-1.307.523,1.362,1.362,0,0,1-1.282-1.622V169.763h-1.962v14.8C674.159,186.45,675.1,187.523,676.958,187.523Zm4.915-14.752a1.318,1.318,0,0,0,1.334-1.308,1.321,1.321,0,1,0-2.642,0A1.312,1.312,0,0,0,681.873,172.771Zm0.994,14.438V174.576h-1.962v12.633h1.962Zm6.17,0V176.3H691.6v-1.726h-2.563v-0.968c0-1.6.706-2.485,1.988-2.485a2.3,2.3,0,0,1,1.569.628l0.811-1.282a3.678,3.678,0,0,0-2.668-.968c-2.249,0-3.662,1.517-3.662,4.107v0.968h-2.092V176.3h2.092v10.907h1.962Zm10.329,0.314a6.866,6.866,0,0,0,5.022-1.936l-0.942-1.282a5.523,5.523,0,0,1-3.9,1.6A4.452,4.452,0,0,1,695,181.533h10.227v-0.5c0-3.793-2.25-6.774-6.068-6.774A6.639,6.639,0,0,0,699.366,187.523Zm3.923-7.429H695a4.215,4.215,0,0,1,4.132-4.211A4.1,4.1,0,0,1,703.289,180.094Zm7.4-8.6a1.761,1.761,0,0,0-1.647-1.988,1.4,1.4,0,0,0-1.387,1.413,1.245,1.245,0,0,0,1.256,1.334,1.179,1.179,0,0,0,.366-0.053,3.974,3.974,0,0,1-1.7,2.433l0.968,0.811A5.049,5.049,0,0,0,710.686,171.489Zm6.328,16.034c3.27,0,4.97-1.7,4.97-3.819,0-4.917-7.821-3.087-7.821-5.859,0-1.125,1.073-1.988,2.8-1.988a4.918,4.918,0,0,1,3.766,1.6l0.916-1.36a6.393,6.393,0,0,0-4.682-1.831c-3.008,0-4.708,1.674-4.708,3.635,0,4.682,7.82,2.8,7.82,5.859,0,1.256-1.046,2.171-2.981,2.171a5.723,5.723,0,0,1-4.159-1.8l-1.02,1.413A6.72,6.72,0,0,0,717.014,187.523Zm19.951,0a5.407,5.407,0,0,0,4.629-2.2l-1.308-1.2a3.808,3.808,0,0,1-3.217,1.648c-2.694,0-4.368-2.092-4.368-4.891s1.674-4.865,4.368-4.865a3.745,3.745,0,0,1,3.217,1.648l1.308-1.2a5.406,5.406,0,0,0-4.629-2.2c-3.767,0-6.3,2.877-6.3,6.617C730.661,184.645,733.2,187.523,736.965,187.523Zm17.624-.314V178.29c0-2.747-1.386-4.028-4.028-4.028a6.279,6.279,0,0,0-4.525,2.144v-6.643h-1.961v17.446h1.961v-9.233a4.966,4.966,0,0,1,3.74-1.962c1.7,0,2.851.654,2.851,2.877v8.318h1.962Zm14.773,0V174.576h-1.988v1.909a5.2,5.2,0,0,0-4.237-2.223c-3.322,0-5.624,2.615-5.624,6.643,0,4.107,2.328,6.618,5.624,6.618a5.318,5.318,0,0,0,4.263-2.2v1.884h1.962Zm-5.754-1.439c-2.537,0-4.054-2.066-4.054-4.865s1.517-4.891,4.054-4.891a4.743,4.743,0,0,1,3.792,2.04v5.728A4.7,4.7,0,0,1,763.608,185.77Zm12.209,1.753a3.141,3.141,0,0,0,2.328-.811l-0.575-1.465a1.827,1.827,0,0,1-1.308.523,1.362,1.362,0,0,1-1.282-1.622V169.763h-1.961v14.8C773.019,186.45,773.96,187.523,775.817,187.523Zm6.746,0a3.141,3.141,0,0,0,2.328-.811l-0.576-1.465a1.823,1.823,0,0,1-1.308.523,1.362,1.362,0,0,1-1.281-1.622V169.763h-1.962v14.8C779.764,186.45,780.706,187.523,782.563,187.523Zm9.649,0a6.866,6.866,0,0,0,5.022-1.936l-0.942-1.282a5.523,5.523,0,0,1-3.9,1.6,4.452,4.452,0,0,1-4.551-4.368h10.227v-0.5c0-3.793-2.25-6.774-6.069-6.774A6.639,6.639,0,0,0,792.212,187.523Zm3.923-7.429h-8.291a4.214,4.214,0,0,1,4.132-4.211A4.1,4.1,0,0,1,796.135,180.094Zm15.322,7.115v-8.867c0-2.746-1.386-4.08-4.028-4.08a6.269,6.269,0,0,0-4.5,2.144v-1.83h-1.961v12.633h1.961v-9.233a4.879,4.879,0,0,1,3.741-1.962c1.7,0,2.824.706,2.824,2.93v8.265h1.962Zm8.731,5.126c3.087,0,6.016-1.308,6.016-5.493V174.576h-1.962v1.909a5.234,5.234,0,0,0-4.237-2.223c-3.322,0-5.623,2.511-5.623,6.565,0,4.08,2.327,6.539,5.623,6.539a5.275,5.275,0,0,0,4.237-2.25v1.8c0,2.772-1.961,3.792-4.054,3.792a4.821,4.821,0,0,1-4.106-1.726l-0.994,1.465A6.453,6.453,0,0,0,820.188,192.335Zm0.288-6.7c-2.537,0-4.054-2.04-4.054-4.812,0-2.8,1.517-4.813,4.054-4.813a4.655,4.655,0,0,1,3.766,2.04v5.519A4.674,4.674,0,0,1,820.476,185.639Zm15.086,1.884a6.863,6.863,0,0,0,5.022-1.936l-0.941-1.282a5.523,5.523,0,0,1-3.9,1.6,4.452,4.452,0,0,1-4.552-4.368h10.227v-0.5c0-3.793-2.249-6.774-6.068-6.774A6.639,6.639,0,0,0,835.562,187.523Zm3.924-7.429h-8.292a4.216,4.216,0,0,1,4.133-4.211A4.1,4.1,0,0,1,839.486,180.094Zm8.835,7.429c3.27,0,4.97-1.7,4.97-3.819,0-4.917-7.821-3.087-7.821-5.859,0-1.125,1.073-1.988,2.8-1.988a4.918,4.918,0,0,1,3.766,1.6l0.916-1.36a6.393,6.393,0,0,0-4.682-1.831c-3.008,0-4.708,1.674-4.708,3.635,0,4.682,7.82,2.8,7.82,5.859,0,1.256-1.046,2.171-2.981,2.171a5.723,5.723,0,0,1-4.159-1.8l-1.02,1.413A6.72,6.72,0,0,0,848.321,187.523Zm8.941-.053a1.439,1.439,0,1,0-1.438-1.438A1.451,1.451,0,0,0,857.262,187.47Z" transform="translate(-88.938 -40.25)"/>
</svg>
